<?xml version="1.0" encoding="UTF-8"?>
<svg version="1.1" xmlns="http://www.w3.org/2000/svg" width="1536" height="1024">
<path d="M0 0 C1.28519531 0.02835937 2.57039063 0.05671875 3.89453125 0.0859375 C21.73479799 0.66247041 39.20784209 3.95482315 56 10 C56.99515625 10.35578125 57.9903125 10.7115625 59.015625 11.078125 C79.81027017 19.1459928 98.25410805 32.34487785 114 48 C114.7417749 48.73573242 114.7417749 48.73573242 115.49853516 49.48632812 C127.80764497 61.86261446 142.88399698 79.6959873 147 97 C147.66 97.33 148.32 97.66 149 98 C150.576793 101.45563265 151.70635826 105.09627327 152.9375 108.6875 C153.31173096 109.73373535 153.68596191 110.7799707 154.0715332 111.85791016 C157.16380594 120.74296273 157.16380594 120.74296273 157.453125 125.32421875 C157.71263718 129.25582831 157.97017274 131.60154206 160 135 C165.49476506 138.77225041 172.03150176 140.74921874 178.26123047 142.97314453 C206.65537066 153.61904876 234.0184349 177.70244657 249.9140625 203.328125 C251.02183251 205.16038292 251.02183251 205.16038292 253 207 C265.97378148 227.51002219 282 257.01872472 282 282 C283.28777344 281.98324219 284.57554687 281.96648437 285.90234375 281.94921875 C290.82831293 281.95211014 295.66511098 282.30806496 300.5625 282.8125 C301.76036133 282.91788086 301.76036133 282.91788086 302.98242188 283.02539062 C308.41756996 283.57909357 312.98065645 284.88629518 318 287 C319.33513272 287.51640845 320.67108241 288.03070931 322.0078125 288.54296875 C356.66898979 302.25059043 383.41104116 326.97892772 398.4375 361.19921875 C411.30771983 391.821194 411.2953453 425.24360839 399 456 C392.71918277 470.97211025 383.31539425 483.52678993 372 495 C371.14792969 495.86496094 370.29585937 496.72992187 369.41796875 497.62109375 C353.18573514 513.22058662 332.4763857 522.27460198 311 528 C310.01 528.33 309.02 528.66 308 529 C296.21811316 530.28482368 284.34832964 530.14892194 272.5141449 530.14717102 C270.47097663 530.15047717 268.427809 530.15420429 266.38464218 530.1583125 C260.80582434 530.16825439 255.22701725 530.17203654 249.64819181 530.17470181 C243.61729888 530.17862797 237.58641429 530.18820419 231.55552673 530.19691467 C217.70014312 530.21567876 203.84475894 530.2259226 189.98936627 530.23437535 C183.13201004 530.23859368 176.27465467 530.24381392 169.41729917 530.24905988 C145.91046433 530.26693901 122.40362921 530.28193323 98.8967886 530.28938007 C97.42368354 530.28985482 95.95057849 530.29033071 94.47747344 530.29080774 C93.74700921 530.29104411 93.01654497 530.29128049 92.26394546 530.29152403 C88.56357756 530.29272512 84.86320968 530.29394061 81.1628418 530.29516602 C80.06135882 530.29552624 80.06135882 530.29552624 78.93762367 530.29589374 C55.13472321 530.30378486 31.3318726 530.32721853 7.5289939 530.35972196 C-17.68059331 530.39408303 -42.89015137 530.41373678 -68.09976238 530.41702431 C-70.87134263 530.41744181 -73.64292286 530.41792136 -76.4145031 530.41844749 C-77.09686492 530.41857069 -77.77922675 530.41869388 -78.48226621 530.4188208 C-89.42218912 530.42114444 -100.36205364 530.43675673 -111.3019558 530.45728934 C-122.31327969 530.47762704 -133.32454348 530.48265587 -144.3358841 530.47351871 C-150.29104379 530.46899023 -156.24601539 530.47077568 -162.20114899 530.49028015 C-167.66734079 530.5080277 -173.13320889 530.50682101 -178.59940469 530.49138286 C-180.56232663 530.48902434 -182.52527169 530.49323747 -184.48815853 530.50521151 C-221.49403089 530.71672341 -254.46475878 519.29558541 -281.125 493.375 C-288.77247329 485.7232975 -294.75027005 477.00227341 -300.34716797 467.78027344 C-301.00869873 466.69407715 -301.00869873 466.69407715 -301.68359375 465.5859375 C-302.27805298 464.59279541 -302.27805298 464.59279541 -302.88452148 463.57958984 C-303.92671138 461.83971045 -303.92671138 461.83971045 -306 461 C-305.67 460.01 -305.34 459.02 -305 458 C-305.88891704 455.2041839 -305.88891704 455.2041839 -307.25 452.125 C-309.50234078 446.5284635 -311.08086525 441.06436295 -312.32421875 435.16796875 C-312.96870591 431.91460057 -312.96870591 431.91460057 -314.08984375 428.4765625 C-315.59957531 422.46264366 -315.12021729 416.3334827 -314.875 410.1875 C-314.82351807 408.89666504 -314.77203613 407.60583008 -314.71899414 406.27587891 C-313.61333379 383.70350602 -307.63129851 363.27833209 -294 345 C-293.12601562 343.76056641 -293.12601562 343.76056641 -292.234375 342.49609375 C-289.32191129 338.43136892 -289.32191129 338.43136892 -288 337 C-287.34 337 -286.68 337 -286 337 C-285.72929687 336.41476562 -285.45859375 335.82953125 -285.1796875 335.2265625 C-284.00858717 333.01620758 -282.74224423 331.27714736 -281.125 329.375 C-280.38636719 328.48941406 -280.38636719 328.48941406 -279.6328125 327.5859375 C-277.85224887 325.85649053 -276.22664746 325.07393239 -274 324 C-272.4229374 322.83190923 -270.86215898 321.6417091 -269.3125 320.4375 C-254.92243574 309.96335811 -238.10114351 302.05726537 -220.16796875 300.49609375 C-212.79686728 300.11707808 -212.79686728 300.11707808 -206.63085938 296.58935547 C-204.13982083 292.95504177 -202.51357916 288.96238238 -200.85058594 284.90087891 C-196.96671143 276.22124432 -189.46443353 268.82116649 -183 262 C-182.22914063 261.17628906 -181.45828125 260.35257813 -180.6640625 259.50390625 C-171.1600169 249.64615022 -160.28916096 241.13442415 -148 235 C-147.34 235 -146.68 235 -146 235 C-145.67 234.34 -145.34 233.68 -145 233 C-144.34 233.33 -143.68 233.66 -143 234 C-143.26627197 233.4738208 -143.53254395 232.9476416 -143.80688477 232.40551758 C-148.80973235 222.43534941 -153.4848877 212.45333813 -157.0625 201.875 C-157.34875244 201.04846924 -157.63500488 200.22193848 -157.92993164 199.37036133 C-159.69179426 193.94586467 -160.4223131 188.85484059 -160.68920898 183.15673828 C-160.79177002 182.44501465 -160.89433105 181.73329102 -161 181 C-161.66 180.67 -162.32 180.34 -163 180 C-165.61445842 134.59832785 -157.36644943 93.63576578 -127.484375 58 C-126.00879534 56.35377507 -124.51404304 54.72442793 -122.99609375 53.1171875 C-121.15162166 51.16081984 -119.45561717 49.13926614 -117.75 47.0625 C-96.26692321 22.57376339 -64.01381703 9.05074566 -32.86914062 2.46142578 C-30.92518376 2.05418012 -30.92518376 2.05418012 -29 1 C-26.1825371 0.76202868 -23.38508666 0.57578398 -20.5625 0.4375 C-19.74136719 0.3957666 -18.92023438 0.3540332 -18.07421875 0.31103516 C-12.04011164 0.01956113 -6.04087819 -0.17743567 0 0 Z M4.875 194.3125 C4.02107666 195.08654175 4.02107666 195.08654175 3.14990234 195.8762207 C0.63844677 198.21740159 -0.89719159 199.69157477 -2 203 C-2.66 203 -3.32 203 -4 203 C-5.63700372 204.85912505 -7.13821976 206.71266495 -8.625 208.6875 C-9.29269409 209.5683728 -9.29269409 209.5683728 -9.97387695 210.46704102 C-19.25114663 222.89476867 -33 241.81670285 -33 258 C-34.69270833 257.25130208 -36.38541667 256.50260417 -38.078125 255.75390625 C-40.05105049 254.97997409 -41.93540416 254.48305102 -44 254 C-45.80404297 253.5359375 -45.80404297 253.5359375 -47.64453125 253.0625 C-49.03382925 252.70823562 -50.42315291 252.35407183 -51.8125 252 C-52.84213867 251.73316406 -52.84213867 251.73316406 -53.89257812 251.4609375 C-82.26343616 244.26756952 -112.68523494 250.00026702 -138 264 C-145.70686918 268.81441458 -152.40022951 274.78644672 -159 281 C-159.61488281 281.55042969 -160.22976563 282.10085938 -160.86328125 282.66796875 C-174.04449446 294.94013277 -182.52278139 312.79805481 -187 330 C-187.73863281 329.855625 -188.47726562 329.71125 -189.23828125 329.5625 C-208.68567857 326.00414522 -228.65490768 328.41102264 -245.5703125 339.28125 C-263.01486521 351.62144805 -274.71807987 366.44331015 -281 387 C-281.23460937 387.73863281 -281.46921875 388.47726562 -281.7109375 389.23828125 C-287.66845683 410.08959892 -283.34567661 434.56284288 -273.16015625 453.3203125 C-270.18917825 458.52188836 -266.70503021 463.3009373 -263 468 C-262.47019531 468.75796875 -261.94039063 469.5159375 -261.39453125 470.296875 C-260.93433594 470.85890625 -260.47414063 471.4209375 -260 472 C-259.34 472 -258.68 472 -258 472 C-257.78601563 472.56203125 -257.57203125 473.1240625 -257.3515625 473.703125 C-249.86200842 486.43103772 -228.49626959 494.41742282 -215 498 C-200.07250788 501.62211206 -184.40940038 501.14755292 -169.15039062 501.13371277 C-167.17648017 501.13558445 -165.20257009 501.13788657 -163.22866058 501.14057809 C-157.8415535 501.14665801 -152.45446202 501.14656703 -147.06735229 501.14538372 C-141.24314132 501.14517875 -135.41893523 501.15070746 -129.59472656 501.15544128 C-118.19970146 501.16372661 -106.80468153 501.16649513 -95.40965366 501.16705366 C-86.14574167 501.16752967 -76.88183138 501.16958862 -67.61791992 501.17275429 C-64.94560496 501.1736519 -62.27329 501.17454172 -59.60097504 501.17542917 C-58.93653199 501.17565021 -58.27208895 501.17587126 -57.58751127 501.17609901 C-38.91661737 501.18224696 -20.24572406 501.18620019 -1.5748291 501.18575573 C-0.52042107 501.18573236 -0.52042107 501.18573236 0.55528814 501.18570852 C4.11761685 501.18562542 7.67994557 501.18552638 11.24227428 501.18542381 C12.30340744 501.1853939 12.30340744 501.1853939 13.38597763 501.18536337 C14.81655339 501.18532294 16.24712916 501.18528114 17.67770493 501.18523798 C39.94139315 501.18462506 62.20506614 501.19213754 84.46875 501.20581055 C109.51282667 501.22118497 134.55689335 501.22977602 159.60097504 501.22884732 C172.85028165 501.22847733 186.09957394 501.23125167 199.34887695 501.24202538 C210.62570477 501.2511368 221.9025076 501.25330019 233.1793375 501.24651595 C238.92902407 501.2432545 244.67866273 501.24318066 250.42834473 501.2518692 C255.69856488 501.25975119 260.96869925 501.25828544 266.23891735 501.24958507 C268.13845451 501.24805387 270.03799812 501.2498518 271.93752766 501.25544515 C291.15657792 501.30825904 309.49699412 499.71488577 327 491 C327.62648438 490.70222656 328.25296875 490.40445312 328.8984375 490.09765625 C351.00235445 478.5526736 366.39585265 459.23361584 373.875 435.5625 C376.63722027 426.7330257 377.18181083 418.37551228 377.1875 409.1875 C377.19974609 408.15818359 377.21199219 407.12886719 377.22460938 406.06835938 C377.23716149 399.45339595 376.51208909 393.42899772 375 387 C374.75286255 385.70872192 374.75286255 385.70872192 374.50073242 384.39135742 C373.95194012 381.7704795 373.05300025 379.45700059 372 377 C371.01 377 370.02 377 369 377 C369.20882812 376.29359375 369.41765625 375.5871875 369.6328125 374.859375 C370.08824808 371.31279157 369.33730235 369.48983155 367.875 366.25 C367.45992187 365.28578125 367.04484375 364.3215625 366.6171875 363.328125 C365.18470221 360.75557496 365.18470221 360.75557496 362.3203125 360.171875 C361.55460937 360.11515625 360.78890625 360.0584375 360 360 C358.03711859 354.37307329 358.03711859 354.37307329 357.76953125 351.68359375 C356.6816436 347.88979264 354.29653806 345.53089203 351.625 342.75 C351.08407715 342.17934814 350.5431543 341.60869629 349.98583984 341.02075195 C331.9482246 322.31205531 308.9516323 311.3659965 282.82128906 310.69799805 C272.67792682 310.64498825 262.58487898 311.57477298 253 315 C253.03480469 314.195625 253.03480469 314.195625 253.0703125 313.375 C253.25997976 305.13802201 252.13081102 297.13780076 251 289 C250.01 289 249.02 289 248 289 C248.66 288.67 249.32 288.34 250 288 C249.59608143 279.94772446 247.67728726 272.7236254 245.25 265.0625 C244.91484375 263.95970703 244.5796875 262.85691406 244.234375 261.72070312 C241.15111505 249.28320176 241.15111505 249.28320176 233.84472656 239.69946289 C232.93158691 239.35322876 232.93158691 239.35322876 232 239 C232.24363281 238.48308594 232.48726562 237.96617187 232.73828125 237.43359375 C233.14365678 233.66420633 231.13180698 231.13677123 229.1875 228.0625 C228.77443604 227.39790771 228.36137207 226.73331543 227.93579102 226.04858398 C211.35371749 199.82046354 186.71321149 177.22300703 157 167 C155.66275352 166.51303978 154.32551465 166.02605865 152.98828125 165.5390625 C101.92828147 147.34642478 45.0058291 157.76850794 4.875 194.3125 Z M233 237 C234 239 234 239 234 239 Z M361 356 C361 356.99 361 357.98 361 359 C361.66 358.67 362.32 358.34 363 358 C362.34 357.34 361.68 356.68 361 356 Z M370 374 C371 376 371 376 371 376 Z " fill="#3A91E6" transform="translate(731,279)"/>
<path d="M0 0 C1.28519531 0.02835937 2.57039062 0.05671875 3.89453125 0.0859375 C21.73479799 0.66247041 39.20784209 3.95482315 56 10 C56.99515625 10.35578125 57.9903125 10.7115625 59.015625 11.078125 C79.81027017 19.1459928 98.25410805 32.34487785 114 48 C114.7417749 48.73573242 114.7417749 48.73573242 115.49853516 49.48632812 C127.80764497 61.86261446 142.88399698 79.6959873 147 97 C147.66 97.33 148.32 97.66 149 98 C149.91381836 99.98681641 149.91381836 99.98681641 150.83984375 102.6015625 C151.17951172 103.56054443 151.51917969 104.51952637 151.86914062 105.50756836 C152.22169922 106.5363208 152.57425781 107.56507324 152.9375 108.625 C153.29650391 109.66213135 153.65550781 110.6992627 154.02539062 111.76782227 C156.72920464 119.76949938 158.73363757 127.64992272 160 136 C154.06821597 134.97101706 148.1850127 133.82822618 142.3125 132.5 C128.90316372 129.62190324 115.67419133 128.58586282 102 128.625 C100.86346985 128.62631424 100.86346985 128.62631424 99.70397949 128.62765503 C52.78846672 128.80524427 12.60152552 146.96023553 -21 179 C-21.79148437 179.73863281 -22.58296875 180.47726562 -23.3984375 181.23828125 C-34.94680432 192.32066134 -43.9174228 205.70462837 -51 220 C-52.22291748 219.97905273 -53.44583496 219.95810547 -54.70581055 219.93652344 C-59.35217019 219.86274932 -63.99848135 219.81771427 -68.64526367 219.78027344 C-70.63591281 219.76046439 -72.62650631 219.73340951 -74.61694336 219.69824219 C-95.68603684 219.33599229 -118.32801713 221.59018446 -137.25390625 231.74609375 C-140 233 -140 233 -142.03955078 232.7980957 C-144.54269072 231.77907148 -144.96698322 230.90206486 -146.11328125 228.484375 C-146.47099609 227.73800781 -146.82871094 226.99164063 -147.19726562 226.22265625 C-147.56529297 225.40667969 -147.93332031 224.59070313 -148.3125 223.75 C-148.69986328 222.90824219 -149.08722656 222.06648437 -149.48632812 221.19921875 C-152.30712165 214.90917342 -154.76891289 208.52118437 -157 202 C-157.29044189 201.1656543 -157.58088379 200.33130859 -157.88012695 199.47167969 C-159.66527269 194.00666142 -160.4255162 188.89718025 -160.69140625 183.15234375 C-160.84416016 182.08693359 -160.84416016 182.08693359 -161 181 C-161.66 180.67 -162.32 180.34 -163 180 C-165.61445842 134.59832785 -157.36644943 93.63576578 -127.484375 58 C-126.00879534 56.35377507 -124.51404304 54.72442793 -122.99609375 53.1171875 C-121.15162166 51.16081984 -119.45561717 49.13926614 -117.75 47.0625 C-96.26692321 22.57376339 -64.01381703 9.05074566 -32.86914062 2.46142578 C-30.92518376 2.05418012 -30.92518376 2.05418012 -29 1 C-26.1825371 0.76202868 -23.38508666 0.57578398 -20.5625 0.4375 C-19.33080078 0.3748999 -19.33080078 0.3748999 -18.07421875 0.31103516 C-12.04011164 0.01956113 -6.04087819 -0.17743567 0 0 Z " fill="#FED72C" transform="translate(731,279)"/>
<path d="M0 0 C4.36709276 2.51982149 7.6074195 6.29573867 9.17181396 11.1257782 C9.77045965 14.17949606 9.7686201 17.09374969 9.78613281 20.20629883 C9.79358017 21.21443382 9.79358017 21.21443382 9.80117798 22.24293518 C9.81574866 24.4601444 9.82259326 26.67728207 9.828125 28.89453125 C9.8338809 30.44146221 9.83963857 31.98839315 9.84539795 33.5353241 C9.85589362 36.77754039 9.86174558 40.019732 9.86523438 43.26196289 C9.87071436 47.40452914 9.89473763 51.54676594 9.92320633 55.68922901 C9.9418847 58.88495316 9.94704108 62.08059879 9.94857025 65.27637291 C9.95158588 66.80291227 9.95957741 68.3294506 9.97275543 69.85593605 C9.98992467 71.99771391 9.98790977 74.1386977 9.98144531 76.28051758 C9.98691376 78.10441765 9.98691376 78.10441765 9.99249268 79.96516418 C9.2980742 86.5265307 6.73579919 91.15869137 1.625 95.4375 C-3.85938628 99.31670005 -9.90386091 99.3376847 -16.375 98.4375 C-22.0528488 96.28763492 -25.52122654 92.80259411 -28.375 87.4375 C-29.56556586 83.86827581 -29.51502241 80.42721367 -29.53613281 76.68457031 C-29.54109772 76.01408661 -29.54606262 75.34360291 -29.55117798 74.65280151 C-29.56575052 72.44039878 -29.57259413 70.2280678 -29.578125 68.015625 C-29.58388144 66.47108968 -29.58963911 64.92655436 -29.59539795 63.38201904 C-29.60589465 60.14399891 -29.6117457 56.9060035 -29.61523438 53.66796875 C-29.62070975 49.53446846 -29.64472268 45.40129912 -29.67320633 41.26790237 C-29.6919039 38.0764269 -29.69704213 34.88502993 -29.69857025 31.69350433 C-29.70158236 30.17058253 -29.7095618 28.64766163 -29.72275543 27.12479401 C-29.86583339 9.33739934 -29.86583339 9.33739934 -25.02911377 3.93389893 C-18.09070271 -2.28887512 -8.56528363 -3.78692806 0 0 Z " fill="#FED72C" transform="translate(739.375,150.5625)"/>
<path d="M0 0 C4.03954815 3.73599828 7.56976656 7.36064825 8.23828125 13.015625 C8.26277344 13.75296875 8.28726563 14.4903125 8.3125 15.25 C8.36857422 16.34054688 8.36857422 16.34054688 8.42578125 17.453125 C7.33026982 24.00609244 2.6733895 28.760853 -1.90234375 33.23046875 C-2.46192276 33.78817459 -3.02150177 34.34588043 -3.59803772 34.92048645 C-4.77367882 36.08945004 -5.9528898 37.25483342 -7.13549805 38.41674805 C-8.93607614 40.18610083 -10.72570122 41.96596335 -12.51367188 43.74804688 C-13.66344162 44.88864705 -14.81381216 46.02864197 -15.96484375 47.16796875 C-16.76038918 47.95713936 -16.76038918 47.95713936 -17.57200623 48.76225281 C-20.57882385 51.71212007 -23.68702574 54.40234716 -27 57 C-29.54454724 59.46527785 -31.99600327 61.99577195 -34.4296875 64.5703125 C-40.40283458 70.8106291 -44.55790026 74.90714848 -53.4375 75.4375 C-59.73456546 75.20149414 -64.15527161 72.56400885 -68.875 68.5625 C-72.4181021 64.28993571 -73.50064012 60.71864873 -73.30078125 55.1015625 C-72.09998967 46.71161611 -65.89428663 41.52257486 -60 36 C-59.13375 35.113125 -58.2675 34.22625 -57.375 33.3125 C-55.467188 31.45489358 -53.5424129 29.7630498 -51.5 28.0625 C-48.22851586 25.30196349 -45.68061639 22.33265821 -43 19 C-41 17 -41 17 -39 15 C-38.67 14.34 -38.34 13.68 -38 13 C-37.25363281 12.566875 -36.50726562 12.13375 -35.73828125 11.6875 C-32.66894833 9.79598527 -30.62601595 7.6473065 -28.1875 5 C-20.30471471 -3.02313161 -10.24185581 -6.09300228 0 0 Z " fill="#FED62C" transform="translate(934,235)"/>
<path d="M0 0 C0.79921875 0.03222656 1.5984375 0.06445312 2.421875 0.09765625 C10.2464124 2.42124125 16.10466378 9.55877157 21.625 15.25 C23.02642682 16.68576305 24.42996769 18.11946663 25.8359375 19.55078125 C26.4448584 20.17766846 27.0537793 20.80455566 27.68115234 21.45043945 C29.19824276 23.03276033 29.19824276 23.03276033 31.25 23.9375 C31.25 24.5975 31.25 25.2575 31.25 25.9375 C31.91 25.9375 32.57 25.9375 33.25 25.9375 C38.01744186 30.23982558 38.01744186 30.23982558 39.25 33.9375 C39.91 33.9375 40.57 33.9375 41.25 33.9375 C42.95811706 35.56165876 44.61798226 37.23689021 46.25 38.9375 C47.52230469 40.15759766 47.52230469 40.15759766 48.8203125 41.40234375 C49.66335938 42.21832031 50.50640625 43.03429687 51.375 43.875 C52.64730469 45.09509766 52.64730469 45.09509766 53.9453125 46.33984375 C58.50927178 51.48396735 59.78459708 55.8370827 59.5234375 62.546875 C59.02027412 66.94596058 57.69882914 69.65468253 54.375 72.59765625 C48.36621405 77.26992915 43.82265334 78.58658457 36.25 77.9375 C24.50918187 74.73545869 15.35263275 62.12558745 7.11425781 53.765625 C3.12209267 49.72915716 -0.88807977 45.81704333 -5.25927734 42.19116211 C-7.58868447 40.23218642 -9.69224925 38.182319 -11.75 35.9375 C-11.75 35.2775 -11.75 34.6175 -11.75 33.9375 C-12.74 33.6075 -13.73 33.2775 -14.75 32.9375 C-18.43332528 29.02396689 -21.56818508 24.48289094 -21.8515625 18.95703125 C-21.45079139 14.02372978 -19.98495457 9.72543826 -16.75 5.9375 C-11.51818479 1.77997949 -6.73632145 -0.41833843 0 0 Z " fill="#FDD62B" transform="translate(537.75,232.0625)"/>
<path d="M0 0 C2.15775409 0.02716952 4.3157084 0.0411989 6.47363281 0.04296875 C9.661795 0.04606822 12.84742893 0.08770793 16.03515625 0.13793945 C16.98836761 0.13198257 17.94157898 0.1260257 18.92367554 0.11988831 C25.94911792 0.2966312 30.50182078 2.38481941 35.82421875 6.9777832 C39.23371468 11.42045972 39.33813455 15.91785396 39.17578125 21.35668945 C38.50985649 26.32152853 35.94404221 28.94410001 32.38671875 32.2277832 C28.05265937 35.18762864 24.2212429 36.2261911 19.01171875 36.6027832 C18.03589844 36.67754883 17.06007813 36.75231445 16.0546875 36.8293457 C15.31863281 36.87833008 14.58257812 36.92731445 13.82421875 36.9777832 C13.82421875 37.3077832 13.82421875 37.6377832 13.82421875 37.9777832 C9.53421875 37.9777832 5.24421875 37.9777832 0.82421875 37.9777832 C0.82421875 37.6477832 0.82421875 37.3177832 0.82421875 36.9777832 C0.00522095 36.97231476 0.00522095 36.97231476 -0.83032227 36.96673584 C-6.54144011 36.92474669 -12.25176655 36.85528772 -17.96240234 36.77026367 C-20.0902513 36.74213377 -22.21820319 36.72087975 -24.34619141 36.70678711 C-27.41492105 36.68524713 -30.48242336 36.63853949 -33.55078125 36.5871582 C-34.49381104 36.58592957 -35.43684082 36.58470093 -36.40844727 36.58343506 C-43.18526769 36.43501208 -48.73645217 35.14286198 -53.83447266 30.45135498 C-56.79421133 27.19976366 -58.01212372 23.06532594 -58.3515625 18.7355957 C-58.04644938 12.6543755 -55.6350057 8.10981089 -51.17578125 3.9777832 C-45.81446281 0.58614468 -41.04277468 0.43332316 -34.88671875 0.28637695 C-33.88176361 0.25346054 -32.87680847 0.22054413 -31.84140015 0.18663025 C-21.22818737 -0.12259536 -10.61591849 -0.15914084 0 0 Z M3.82421875 35.9777832 C3.82421875 36.3077832 3.82421875 36.6377832 3.82421875 36.9777832 C6.13421875 36.9777832 8.44421875 36.9777832 10.82421875 36.9777832 C10.82421875 36.6477832 10.82421875 36.3177832 10.82421875 35.9777832 C8.51421875 35.9777832 6.20421875 35.9777832 3.82421875 35.9777832 Z " fill="#FED72C" transform="translate(493.17578125,426.022216796875)"/>
<path d="M0 0 C1.04905518 0.00410889 2.09811035 0.00821777 3.17895508 0.01245117 C6.70292797 0.03629124 10.22626911 0.07733824 13.75 0.125 C14.41296082 0.13360046 15.07592163 0.14220093 15.75897217 0.15106201 C19.96321322 0.20813876 24.16637229 0.28679131 28.36975098 0.38946533 C29.73822183 0.42125548 31.10680746 0.4484647 32.47546387 0.47088623 C34.40451049 0.50427608 36.33316311 0.55842787 38.26171875 0.61328125 C39.36990967 0.63946533 40.47810059 0.66564941 41.61987305 0.69262695 C47.5921182 1.51758961 51.7974935 4.34843596 55.46875 8.9765625 C57.96251523 13.15818103 58.99551827 17.26237428 58.75 22.125 C56.37902584 28.11626931 52.35798071 32.13407695 46.75 35.125 C44.00553397 36.03982201 42.314467 36.2650082 39.48144531 36.30200195 C38.19430634 36.32125481 38.19430634 36.32125481 36.88116455 36.34089661 C35.49365997 36.35197701 35.49365997 36.35197701 34.078125 36.36328125 C33.12234558 36.371353 32.16656616 36.37942474 31.18182373 36.38774109 C29.15769256 36.40157321 27.13353815 36.41229926 25.109375 36.42016602 C22.02558735 36.43735736 18.94287792 36.48124899 15.859375 36.52539062 C13.89063287 36.53551988 11.92188163 36.54403525 9.953125 36.55078125 C9.03621887 36.56828934 8.11931274 36.58579742 7.17462158 36.60383606 C0.27118328 36.58064042 -3.68668908 35.08147351 -9.06347656 30.62036133 C-9.50143555 30.1539624 -9.93939453 29.68756348 -10.390625 29.20703125 C-10.89891846 28.67899902 -11.40721191 28.1509668 -11.9309082 27.60693359 C-12.4487085 27.05602051 -12.96650879 26.50510742 -13.5 25.9375 C-18.47355238 20.77548382 -23.57483631 16.25886128 -29.30078125 11.9296875 C-29.94402344 11.33414062 -30.58726562 10.73859375 -31.25 10.125 C-31.25 9.135 -31.25 8.145 -31.25 7.125 C-22.43830203 -1.09925143 -11.46276781 -0.0556674 0 0 Z " fill="#FDD72D" transform="translate(986.25,425.875)"/>
<path d="M0 0 C3.00225208 1.36828303 5.25551795 2.97974544 7.75 5.125 C27.89611059 21.02283686 52.77206701 24.11444027 77.60375977 24.00976562 C89.26737263 23.98590989 100.92711873 24.08540948 112.58984375 24.21875 C114.64205304 24.24127993 116.69426356 24.26369784 118.74647522 24.28601074 C124.06118012 24.34408741 129.37586727 24.40365073 134.69055176 24.46356201 C140.14850867 24.52481244 145.60648156 24.58460397 151.06445312 24.64453125 C161.70965122 24.76162161 172.35483108 24.8802881 183 25 C183 25.33 183 25.66 183 26 C166.65632573 26.09397692 150.31274083 26.16423783 133.96886063 26.20724869 C126.37791085 26.22776162 118.78713018 26.2556627 111.19628906 26.30175781 C104.57018745 26.34197495 97.94420846 26.36751437 91.31798816 26.37635398 C87.81839712 26.38151065 84.31915649 26.39338594 80.81967926 26.42292023 C60.63040499 26.5865376 41.4378602 26.05770875 23 17 C21.95392578 16.54173828 21.95392578 16.54173828 20.88671875 16.07421875 C14.68894038 13.25478851 9.40722774 9.08900607 4 5 C3.23171875 4.46503906 2.4634375 3.93007813 1.671875 3.37890625 C1.12015625 2.92386719 0.5684375 2.46882812 0 2 C0 1.34 0 0.68 0 0 Z " fill="#2B74C1" transform="translate(475,755)"/>
<path d="M0 0 C0.99 0.495 0.99 0.495 2 1 C-3.07295936 4.49470534 -6.57506964 6.05912338 -12.6875 6.5625 C-13.68136719 6.64628906 -14.67523438 6.73007812 -15.69921875 6.81640625 C-16.45847656 6.87699219 -17.21773438 6.93757813 -18 7 C-18 7.33 -18 7.66 -18 8 C-22.29 8 -26.58 8 -31 8 C-31 7.67 -31 7.34 -31 7 C-31.55043976 6.99413376 -32.10087952 6.98826752 -32.66799927 6.98222351 C-38.41116189 6.91815397 -44.15377116 6.83369976 -49.89648438 6.73754883 C-52.0380116 6.70435062 -54.17962524 6.67630286 -56.32128906 6.65356445 C-59.40467054 6.61992496 -62.48726369 6.56760346 -65.5703125 6.51171875 C-67.00034103 6.50213387 -67.00034103 6.50213387 -68.45925903 6.49235535 C-73.72745031 6.37655118 -77.40440135 5.87308533 -82 3 C-81.34 2.67 -80.68 2.34 -80 2 C-79.01 2.33 -78.02 2.66 -77 3 C-74.71157658 3.10501186 -72.42019232 3.1486925 -70.12939453 3.16113281 C-69.08739899 3.16858017 -69.08739899 3.16858017 -68.02435303 3.17617798 C-65.72716276 3.19077829 -63.43004154 3.19759784 -61.1328125 3.203125 C-59.53482054 3.20887799 -57.9368286 3.21463571 -56.33883667 3.22039795 C-52.98809488 3.23090172 -49.63737703 3.23674854 -46.28662109 3.24023438 C-41.99698284 3.24571933 -37.70766196 3.2697498 -33.41812325 3.29820633 C-30.11696451 3.31684645 -26.81588205 3.32203902 -23.51467514 3.32357025 C-21.93345275 3.32659397 -20.35223161 3.33461304 -18.77106094 3.34775543 C-16.55692762 3.36484597 -14.34356739 3.36292884 -12.12939453 3.35644531 C-10.87047394 3.36009094 -9.61155334 3.36373657 -8.31448364 3.36749268 C-4.75104916 2.97239763 -2.96080872 1.92262891 0 0 Z M-28 6 C-28 6.33 -28 6.66 -28 7 C-25.69 7 -23.38 7 -21 7 C-21 6.67 -21 6.34 -21 6 C-23.31 6 -25.62 6 -28 6 Z " fill="#F9CD24" transform="translate(525,456)"/>
<path d="M0 0 C0 0.66 0 1.32 0 2 C-0.65484375 2.32871094 -1.3096875 2.65742187 -1.984375 2.99609375 C-12.73843792 8.60096552 -21.86713389 15.21649992 -29.7734375 24.4453125 C-34.36349222 29.71179634 -39.42947805 34.57739299 -44.51171875 39.3671875 C-47.3032441 42.32085797 -49.41599185 45.37864607 -51.5625 48.8125 C-51.95236084 49.42689941 -52.34222168 50.04129883 -52.74389648 50.67431641 C-55.45356279 54.99407428 -57.86716539 59.36340302 -60 64 C-61 61 -61 61 -59.84765625 58.25 C-53.4982493 46.69046699 -46.0914045 36.59310408 -37 27 C-36.22914063 26.17628906 -35.45828125 25.35257813 -34.6640625 24.50390625 C-11.03939158 0 -11.03939158 0 0 0 Z " fill="#3987D5" transform="translate(585,514)"/>
<path d="M0 0 C2.56903809 2.23394616 3.40861257 3.66714809 4 7 C4.09760471 9.28114116 4.13818003 11.56492718 4.14526367 13.84814453 C4.15030159 14.86832672 4.15030159 14.86832672 4.15544128 15.90911865 C4.16491736 18.15036864 4.1668923 20.39154374 4.16796875 22.6328125 C4.1711822 24.19172191 4.17454634 25.75063102 4.17805481 27.30953979 C4.18403665 30.57274068 4.18589553 33.83591511 4.18530273 37.09912109 C4.18520083 41.28694554 4.19888617 45.47460152 4.21607494 49.66238594 C4.22717085 52.87935166 4.22922274 56.09627622 4.22869301 59.31325912 C4.22987549 60.85787414 4.23431223 62.40249013 4.24202538 63.94708633 C4.25178262 66.10172776 4.24896509 68.25599759 4.24291992 70.41064453 C4.24434494 71.63768097 4.24576996 72.86471741 4.24723816 74.12893677 C4 77 4 77 2 79 C1.9845388 77.67028419 1.9845388 77.67028419 1.96876526 76.31370544 C1.87061682 67.94233735 1.76807839 59.57103686 1.66066074 51.19978237 C1.60559539 46.89647811 1.55220251 42.59316689 1.50268555 38.28979492 C1.45479913 34.13355466 1.40244926 29.97739199 1.34705925 25.82124519 C1.32674517 24.23892218 1.30801481 22.65657798 1.29092598 21.07421684 C1.26663771 18.85075134 1.23661927 16.62742916 1.20532227 14.40405273 C1.18977798 13.14052475 1.1742337 11.87699677 1.15821838 10.57518005 C0.99967027 6.99254926 0.56763513 3.53892336 0 0 Z " fill="#FACB20" transform="translate(745,157)"/>
<path d="M0 0 C0.66 0.33 1.32 0.66 2 1 C1.3709375 1.83660156 0.741875 2.67320312 0.09375 3.53515625 C-20.27244365 31.04331375 -24.64156286 58.52357895 -24 92 C-27.14914531 88.59536483 -27.34651357 86.28170758 -27.21484375 81.71484375 C-27.18124756 80.47130127 -27.14765137 79.22775879 -27.11303711 77.9465332 C-27.05675145 76.61009316 -26.99819184 75.27374719 -26.9375 73.9375 C-26.91011749 73.2614975 -26.88273499 72.585495 -26.85452271 71.88900757 C-25.86536963 48.3850453 -20.28548571 27.07670828 -6 8 C-5.39414062 7.17371094 -4.78828125 6.34742188 -4.1640625 5.49609375 C-2.79500998 3.64819422 -1.41038963 1.81641088 0 0 Z " fill="#3479BF" transform="translate(443,616)"/>
<path d="M0 0 C0.93423645 3.01031744 1.04449911 3.86650268 0 7 C-0.09689194 9.54204224 -0.13997157 12.05574269 -0.1328125 14.59765625 C-0.13376923 15.34655624 -0.13472595 16.09545624 -0.13571167 16.86705017 C-0.13639221 18.45490604 -0.13454669 20.04276471 -0.13037109 21.63061523 C-0.12507355 24.02920012 -0.13029288 26.42759322 -0.13671875 28.82617188 C-0.13944467 35.78818187 -0.04965869 42.61377842 0.78173828 49.53393555 C1.26216031 54.9620596 1.05917342 60.43104558 1 65.875 C0.97448631 68.26818385 0.95345511 70.66142084 0.9375 73.0546875 C0.92589844 74.10124512 0.91429687 75.14780273 0.90234375 76.22607422 C0.98835127 78.66911773 1.2910397 80.67285176 2 83 C-0.56854791 80.76648008 -1.40776737 79.33190434 -2 76 C-2.09753899 73.74002959 -2.13817606 71.47739522 -2.14526367 69.21533203 C-2.14862228 68.54163574 -2.1519809 67.86793945 -2.15544128 67.17382812 C-2.16492212 64.95180404 -2.16689297 62.72985554 -2.16796875 60.5078125 C-2.1711834 58.95848561 -2.17454763 57.40915902 -2.17805481 55.85983276 C-2.18403895 52.61341651 -2.18589545 49.36702685 -2.18530273 46.12060547 C-2.18520117 41.96904625 -2.19885066 37.81765827 -2.21607494 33.6661396 C-2.22721596 30.46616845 -2.22922129 27.26623841 -2.22869301 24.06624985 C-2.22987006 22.53610519 -2.23427636 21.00595938 -2.24202538 19.47583389 C-2.25186757 17.33158771 -2.24893074 15.18770966 -2.24291992 13.04345703 C-2.24434494 11.82530304 -2.24576996 10.60714905 -2.24723816 9.3520813 C-1.99466498 5.92766717 -1.22866439 3.19360222 0 0 Z " fill="#FACB1E" transform="translate(712,158)"/>
<path d="M0 0 C1.06710205 0.00410889 2.1342041 0.00821777 3.23364258 0.01245117 C6.82271238 0.03634234 10.41116813 0.0772848 14 0.125 C14.66723083 0.13360046 15.33446167 0.14220093 16.02191162 0.15106201 C20.22318818 0.20797114 24.42337208 0.28662981 28.6237793 0.38946533 C29.99054052 0.42127774 31.35741745 0.44848061 32.72436523 0.47088623 C34.65377794 0.50428037 36.58279675 0.55843156 38.51171875 0.61328125 C39.61990967 0.63946533 40.72810059 0.66564941 41.86987305 0.69262695 C47.84899648 1.51853972 52.02454705 4.35790242 55.7265625 8.9609375 C58.08657654 12.97151351 59.28797233 17.47630381 59 22.125 C57.0234375 24.9609375 57.0234375 24.9609375 55 27.125 C55.06960938 26.2071875 55.13921875 25.289375 55.2109375 24.34375 C55.52971653 17.11809207 55.55460086 12.22865994 50.80078125 6.578125 C46.78534156 3.33790035 42.7812074 2.86774388 37.7409668 2.80615234 C35.87960335 2.77634781 35.87960335 2.77634781 33.9806366 2.74594116 C32.63683246 2.73406671 31.29302643 2.72240374 29.94921875 2.7109375 C28.56629799 2.69221502 27.18338853 2.6726408 25.80049133 2.6522522 C22.17233962 2.60103882 18.54415091 2.56135569 14.91583252 2.52410889 C11.20877004 2.48400125 7.50186001 2.43293985 3.79492188 2.3828125 C-3.46994729 2.28618118 -10.73489055 2.20173587 -18 2.125 C-18 1.795 -18 1.465 -18 1.125 C-11.97448233 0.07053441 -6.1088639 -0.02868468 0 0 Z " fill="#F5B914" transform="translate(986,425.875)"/>
<path d="M0 0 C0 3.93543422 -1.42377288 5.52121405 -3.5625 8.8125 C-10.81547663 20.29112388 -16.0627033 32.04502375 -20 45 C-21.64767247 44.71890887 -23.29313145 44.42481474 -24.9375 44.125 C-25.85402344 43.96257813 -26.77054688 43.80015625 -27.71484375 43.6328125 C-28.46894531 43.42398438 -29.22304688 43.21515625 -30 43 C-30.33 42.34 -30.66 41.68 -31 41 C-33.51458401 40.38356018 -33.51458401 40.38356018 -36.4375 40 C-41.78015267 39.21984733 -41.78015267 39.21984733 -44 37 C-36.2501365 37.52541447 -29.3549914 39.55591476 -22 42 C-21.77449463 41.41210693 -21.54898926 40.82421387 -21.31665039 40.21850586 C-15.73170647 25.78827156 -9.95560418 12.01384145 0 0 Z " fill="#3176BC" transform="translate(718,492)"/>
<path d="M0 0 C0.495 1.98 0.495 1.98 1 4 C-1.61664815 5.30832408 -2.55077262 4.74405645 -5.375 4.0625 C-14.13992752 2.3142079 -23.10682352 2.8432153 -32 3 C-32.33 3.66 -32.66 4.32 -33 5 C-34.051875 5.0825 -35.10375 5.165 -36.1875 5.25 C-41.28838041 5.71456106 -45.67256363 7.85732062 -50.25073242 10.00488281 C-51.81071049 10.72245983 -53.40369373 11.36734319 -55 12 C-55.66 11.67 -56.32 11.34 -57 11 C-54.7941576 9.86988348 -52.58554973 8.74584212 -50.375 7.625 C-49.75753906 7.30789063 -49.14007813 6.99078125 -48.50390625 6.6640625 C-38.21604858 1.46598704 -28.66504615 0.83142017 -17.3125 0.875 C-16.29349609 0.87113281 -15.27449219 0.86726562 -14.22460938 0.86328125 C-12.74637695 0.86521484 -12.74637695 0.86521484 -11.23828125 0.8671875 C-10.35180908 0.86831543 -9.46533691 0.86944336 -8.55200195 0.87060547 C-5.94727554 1.0026733 -3.54065195 1.42500584 -1 2 C-0.67 1.34 -0.34 0.68 0 0 Z " fill="#2F77C1" transform="translate(544,605)"/>
<path d="M0 0 C0.33 0 0.66 0 1 0 C1.25394531 1.25554687 1.50789062 2.51109375 1.76953125 3.8046875 C3.83895481 13.91547287 5.97195228 23.78402088 9.6875 33.4375 C11 37 11 37 11 40 C11.99 40.33 12.98 40.66 14 41 C13.34 42.32 12.68 43.64 12 45 C8.17917354 36.93832714 5.14309238 28.80740104 2.625 20.25 C2.36251465 19.38802002 2.1000293 18.52604004 1.82958984 17.63793945 C0.12747789 11.65314943 -0.313575 6.20845311 0 0 Z " fill="#F8C921" transform="translate(570,456)"/>
<path d="M0 0 C1.7971358 4.15787039 -0.00406815 7.62014865 -1.5625 11.5625 C-1.83771484 12.27341797 -2.11292969 12.98433594 -2.39648438 13.71679688 C-5.94220974 22.65784011 -10.29551568 31.95221378 -17 39 C-17.66 39 -18.32 39 -19 39 C-17.60266413 35.93775331 -15.83195514 33.25110729 -13.92797852 30.48217773 C-8.44155581 22.41457793 -5.13277361 14.19289306 -2 5 C-1.34588315 3.32836805 -0.6847481 1.65931982 0 0 Z " fill="#327AC3" transform="translate(1106,709)"/>
<path d="M0 0 C-1.00417969 0.4846875 -2.00835938 0.969375 -3.04296875 1.46875 C-14.21233778 6.92030244 -24.6730099 13.07448142 -35 20 C-35.66 19.67 -36.32 19.34 -37 19 C-7.18779343 -3.59389671 -7.18779343 -3.59389671 0 0 Z " fill="#FCCB1C" transform="translate(668,292)"/>
<path d="M0 0 C0 0.66 0 1.32 0 2 C-0.65484375 2.32871094 -1.3096875 2.65742187 -1.984375 2.99609375 C-13.62959139 9.06542263 -23.44227376 17.05549071 -33 26 C-33.66 25.67 -34.32 25.34 -35 25 C-28.00661281 17.43615525 -11.27846124 0 0 0 Z " fill="#3A80C2" transform="translate(585,514)"/>
<path d="M0 0 C0.33 0.99 0.66 1.98 1 3 C-1.64 3.33 -4.28 3.66 -7 4 C-7 4.66 -7 5.32 -7 6 C-10.63 6 -14.26 6 -18 6 C-18.33 5.34 -18.66 4.68 -19 4 C-16.39688008 3.32900016 -13.79264602 2.66304662 -11.1875 2 C-10.44951172 1.80921875 -9.71152344 1.6184375 -8.95117188 1.421875 C-5.89464659 0.64737086 -3.16626522 0 0 0 Z " fill="#3C8BDE" transform="translate(799,410)"/>
<path d="M0 0 C0.66 0.33 1.32 0.66 2 1 C1.11957031 1.80824219 0.23914063 2.61648438 -0.66796875 3.44921875 C-1.84119774 4.52858942 -3.01437191 5.60801967 -4.1875 6.6875 C-5.0547168 7.48317383 -5.0547168 7.48317383 -5.93945312 8.29492188 C-8.58145654 10.72795326 -11.17836893 13.17836893 -13.71875 15.71875 C-16.35120074 18.35120074 -19.1150804 20.65180962 -22 23 C-20.37713649 19.11440108 -17.76031904 16.24101863 -14.9375 13.1875 C-14.4530542 12.65995117 -13.9686084 12.13240234 -13.46948242 11.58886719 C-9.35908461 7.20354661 -4.9252693 3.45376909 0 0 Z " fill="#FDCC1B" transform="translate(628,313)"/>
<path d="M0 0 C0.66 0.33 1.32 0.66 2 1 C-6.25 9.25 -14.5 17.5 -23 26 C-23.66 25.67 -24.32 25.34 -25 25 C-24.278125 24.29875 -23.55625 23.5975 -22.8125 22.875 C-20.83067874 20.91006927 -19.05292847 18.86821544 -17.3125 16.6875 C-16.1678125 15.3571875 -16.1678125 15.3571875 -15 14 C-14.34 14 -13.68 14 -13 14 C-12.67 13.01 -12.34 12.02 -12 11 C-10.29296875 9.31640625 -10.29296875 9.31640625 -8.1875 7.5625 C-5.33240495 5.14310168 -2.5947338 2.7028477 0 0 Z " fill="#F9CA1E" transform="translate(935,262)"/>
<path d="M0 0 C0 3.85397515 -0.96210357 4.42337053 -3.625 7.125 C-7.56356981 10.94459871 -11.71891715 14.03969105 -16.3125 17 C-16.91078613 17.38559082 -17.50907227 17.77118164 -18.12548828 18.16845703 C-21.01614546 19.96750329 -23.60968953 21.46424723 -27 22 C-24.22446646 19.02529622 -21.50826622 16.97876799 -18 14.9375 C-11.23580566 10.75666193 -5.69519312 5.49640802 0 0 Z " fill="#3079C3" transform="translate(1086,748)"/>
<path d="M0 0 C5.80177469 0.94722852 8.84259849 2.99517868 12.5390625 7.578125 C15.02472808 11.69874708 16.36772976 16.17625078 16 21 C14.01953125 23.83203125 14.01953125 23.83203125 12 26 C12.10441406 24.62328125 12.10441406 24.62328125 12.2109375 23.21875 C12.52704189 16.05371705 12.67013819 10.97637985 7.734375 5.48828125 C5.35411619 3.44576187 2.92284963 2.11346653 0 1 C0 0.67 0 0.34 0 0 Z " fill="#F0C325" transform="translate(1029,427)"/>
<path d="M0 0 C0.33 0 0.66 0 1 0 C1 1.65 1 3.3 1 5 C0.34 5 -0.32 5 -1 5 C-0.8349028 12.32431196 0.56369672 17.13949603 5 23 C2.6875 22.5625 2.6875 22.5625 0 21 C-3.22277955 15.33277256 -3.6672437 9.24276214 -2 3 C-1.34 2.01 -0.68 1.02 0 0 Z " fill="#F3C41F" transform="translate(438,435)"/>
<path d="M0 0 C0.66 0.33 1.32 0.66 2 1 C-3.61 6.61 -9.22 12.22 -15 18 C-15.66 17.67 -16.32 17.34 -17 17 C-15.97163476 14.28885528 -15.29388267 13.17143156 -12.75 11.6875 C-9.57882882 9.74155405 -7.28057606 7.47472475 -4.6875 4.8125 C-3.36298828 3.46091797 -3.36298828 3.46091797 -2.01171875 2.08203125 C-1.01591797 1.05142578 -1.01591797 1.05142578 0 0 Z " fill="#F9CA1C" transform="translate(911,235)"/>
<path d="M0 0 C-2.72903747 1.12531424 -5.45822505 2.250262 -8.1875 3.375 C-8.95642578 3.69210937 -9.72535156 4.00921875 -10.51757812 4.3359375 C-14.33758789 5.9098471 -18.15964337 7.47617112 -22 9 C-21 6 -21 6 -19.3894043 5.00097656 C-17.15963808 4.07206107 -14.93081795 3.14585253 -12.6875 2.25 C-11.91470703 1.92128906 -11.14191406 1.59257812 -10.34570312 1.25390625 C-9.59611328 0.94839844 -8.84652344 0.64289063 -8.07421875 0.328125 C-7.38932373 0.0487207 -6.70442871 -0.23068359 -5.9987793 -0.51855469 C-3.65672322 -1.08268497 -2.2603602 -0.75503429 0 0 Z " fill="#277EED" transform="translate(778,417)"/>
<path d="M0 0 C2.42130331 2.42130331 2.52840504 3.80111377 3.125 7.125 C3.29257812 8.03507812 3.46015625 8.94515625 3.6328125 9.8828125 C3.81457031 10.93082031 3.81457031 10.93082031 4 12 C1.69 11.67 -0.62 11.34 -3 11 C-2.01 7.37 -1.02 3.74 0 0 Z " fill="#EECE2D" transform="translate(887,403)"/>
<path d="M0 0 C1.85772162 0.08984301 3.71247985 0.24611861 5.5625 0.4375 C7.08037109 0.59025391 7.08037109 0.59025391 8.62890625 0.74609375 C9.80259766 0.87177734 9.80259766 0.87177734 11 1 C11 1.33 11 1.66 11 2 C8.10496617 2.50505263 5.20912047 3.0042022 2.3125 3.5 C1.08756836 3.71462891 1.08756836 3.71462891 -0.16210938 3.93359375 C-4.14978248 4.61165962 -7.93730404 5.19858392 -12 5 C-9.68789868 2.68789868 -8.58208523 2.53815111 -5.4375 1.9375 C-2.4322803 1.53522134 -2.4322803 1.53522134 0 0 Z " fill="#FCCB1F" transform="translate(701,280)"/>
<path d="M0 0 C0.33 0 0.66 0 1 0 C1.33 9.24 1.66 18.48 2 28 C-1.18424877 23.75433497 -1.36192024 23.27645509 -1.07421875 18.359375 C-0.99204102 16.75449219 -0.99204102 16.75449219 -0.90820312 15.1171875 C-0.83537109 14.00601563 -0.76253906 12.89484375 -0.6875 11.75 C-0.62626953 10.62335937 -0.56503906 9.49671875 -0.50195312 8.3359375 C-0.34882994 5.55616267 -0.18099971 2.77807613 0 0 Z " fill="#3074BB" transform="translate(417,680)"/>
<path d="M0 0 C0 0.66 0 1.32 0 2 C-2.09950586 2.86555948 -4.2047907 3.71711277 -6.3125 4.5625 C-8.07013672 5.27599609 -8.07013672 5.27599609 -9.86328125 6.00390625 C-13 7 -13 7 -16 6 C-15.38125 5.731875 -14.7625 5.46375 -14.125 5.1875 C-11.7004767 4.04443152 -11.7004767 4.04443152 -10 1 C-8.125 0.48828125 -8.125 0.48828125 -6 0.3125 C-5.29875 0.24675781 -4.5975 0.18101562 -3.875 0.11328125 C-2.58513348 0.03535181 -1.29221849 0 0 0 Z " fill="#F7E71C" transform="translate(608,503)"/>
<path d="M0 0 C0.33 0 0.66 0 1 0 C1.33 4.62 1.66 9.24 2 14 C3.65 14 5.3 14 7 14 C4.35261084 15.4606285 3.10551666 16 0 16 C0 10.72 0 5.44 0 0 Z " fill="#3E9CF4" transform="translate(985,576)"/>
<path d="M0 0 C2 3.75 2 3.75 2 6 C2.66 6 3.32 6 4 6 C4 6.66 4 7.32 4 8 C4.66 8 5.32 8 6 8 C5.67 8.99 5.34 9.98 5 11 C2.36 8.69 -0.28 6.38 -3 4 C-2.01 2.68 -1.02 1.36 0 0 Z " fill="#EECC2D" transform="translate(957,431)"/>
<path d="M0 0 C0.33 1.32 0.66 2.64 1 4 C-1.81484045 5.40742022 -3.56936113 4.66652164 -6.625 4.0625 C-7.62789062 3.86785156 -8.63078125 3.67320312 -9.6640625 3.47265625 C-10.43492187 3.31667969 -11.20578125 3.16070313 -12 3 C-11.34 2.34 -10.68 1.68 -10 1 C-7.8359375 1.0234375 -7.8359375 1.0234375 -5.375 1.375 C-4.14910156 1.54128906 -4.14910156 1.54128906 -2.8984375 1.7109375 C-2.27195312 1.80632813 -1.64546875 1.90171875 -1 2 C-0.67 1.34 -0.34 0.68 0 0 Z " fill="#3681CD" transform="translate(544,605)"/>
<path d="M0 0 C0.99 0.33 1.98 0.66 3 1 C3 1.66 3 2.32 3 3 C3.8971875 3.37125 3.8971875 3.37125 4.8125 3.75 C7.28647521 5.16370012 8.43370255 6.65055383 10 9 C6.71245489 8.42110619 5.06327505 7.45171589 2.75 5.0625 C2.22921875 4.53785156 1.7084375 4.01320313 1.171875 3.47265625 C0 2 0 2 0 0 Z " fill="#F9CE20" transform="translate(965,442)"/>
<path d="M0 0 C0.66 0.33 1.32 0.66 2 1 C0.84906278 4.45281166 -0.3205993 5.38082163 -3.0625 7.6875 C-3.79597656 8.31011719 -4.52945312 8.93273437 -5.28515625 9.57421875 C-5.85105469 10.04472656 -6.41695313 10.51523437 -7 11 C-7 7.22089522 -6.00296038 6.53893899 -3.5 3.8125 C-2.8503125 3.09707031 -2.200625 2.38164063 -1.53125 1.64453125 C-1.0259375 1.10183594 -0.520625 0.55914063 0 0 Z " fill="#397FC5" transform="translate(453,605)"/>
<path d="M0 0 C0.66 0.33 1.32 0.66 2 1 C-1.12621626 4.39417765 -3.56541027 6.6062718 -8 8 C-3.375 2.25 -3.375 2.25 0 0 Z " fill="#1F7EF3" transform="translate(727,442)"/>
<path d="M0 0 C0 3.99904969 -1.72586967 5.80200422 -4 9 C-5 7 -5 7 -4.25 4.5 C-3 2 -3 2 0 0 Z " fill="#347FCA" transform="translate(1120,750)"/>
<path d="M0 0 C2.475 0.99 2.475 0.99 5 2 C5 2.99 5 3.98 5 5 C4.67 4.34 4.34 3.68 4 3 C1.97536745 2.34786708 1.97536745 2.34786708 0 2 C0 1.34 0 0.68 0 0 Z " fill="#4695E0" transform="translate(1040,595)"/>
<path d="M0 0 C0.99 0.33 1.98 0.66 3 1 C1.68 1.33 0.36 1.66 -1 2 C-0.67 1.34 -0.34 0.68 0 0 Z " fill="#448FD9" transform="translate(1045,806)"/>
<path d="M0 0 C1.65 0 3.3 0 5 0 C5 0.33 5 0.66 5 1 C3.35 1 1.7 1 0 1 C0 0.67 0 0.34 0 0 Z " fill="#4695DF" transform="translate(842,438)"/>
<path d="M0 0 C0.99 0.33 1.98 0.66 3 1 C2.01 1.33 1.02 1.66 0 2 C0 1.34 0 0.68 0 0 Z " fill="#468DD4" transform="translate(494,802)"/>
<path d="M0 0 C0.99 0 1.98 0 3 0 C2.67 0.66 2.34 1.32 2 2 C1.34 1.34 0.68 0.68 0 0 Z " fill="#448FD7" transform="translate(448,773)"/>
<path d="M0 0 C0 3 0 3 0 3 Z " fill="#F0D23C" transform="translate(570,471)"/>
<path d="M0 0 C4 1 4 1 4 1 Z " fill="#E6CA43" transform="translate(1013,463)"/>
<path d="M0 0 C4 1 4 1 4 1 Z " fill="#E5CD43" transform="translate(1006,463)"/>
<path d="M0 0 C4 1 4 1 4 1 Z " fill="#EECF3A" transform="translate(477,463)"/>
<path d="M0 0 C4 1 4 1 4 1 Z " fill="#FBD731" transform="translate(696,280)"/>
<path d="M0 0 C3 1 3 1 3 1 Z " fill="#438FDA" transform="translate(503,805)"/>
<path d="M0 0 C0.66 0.66 1.32 1.32 2 2 C1.34 2 0.68 2 0 2 C0 1.34 0 0.68 0 0 Z " fill="#4393E1" transform="translate(1068,760)"/>
<path d="M0 0 C0.66 0.66 1.32 1.32 2 2 C1.34 2 0.68 2 0 2 C0 1.34 0 0.68 0 0 Z " fill="#438ED8" transform="translate(1117,758)"/>
<path d="" fill="#458ED5" transform="translate(0,0)"/>
<path d="M0 0 C3 1 3 1 3 1 Z " fill="#4791D7" transform="translate(1057,568)"/>
<path d="" fill="#4791D6" transform="translate(0,0)"/>
<path d="M0 0 C0.33 0.66 0.66 1.32 1 2 C0.34 1.67 -0.32 1.34 -1 1 C-0.67 0.67 -0.34 0.34 0 0 Z " fill="#4290DB" transform="translate(725,486)"/>
<path d="M0 0 C0.66 0.66 1.32 1.32 2 2 C1.34 2 0.68 2 0 2 C0 1.34 0 0.68 0 0 Z " fill="#4893D9" transform="translate(923,469)"/>
<path d="M0 0 C0.66 0.66 1.32 1.32 2 2 C1.34 2 0.68 2 0 2 C0 1.34 0 0.68 0 0 Z " fill="#4995D8" transform="translate(921,466)"/>
<path d="M0 0 C3 1 3 1 3 1 Z " fill="#E4C940" transform="translate(1022,463)"/>
<path d="M0 0 C3 1 3 1 3 1 Z " fill="#EDCE3A" transform="translate(470,463)"/>
<path d="" fill="#F6D538" transform="translate(0,0)"/>
<path d="M0 0 C3 1 3 1 3 1 Z " fill="#4997DD" transform="translate(873,443)"/>
<path d="M0 0 C0.66 0.66 1.32 1.32 2 2 C1.34 2 0.68 2 0 2 C0 1.34 0 0.68 0 0 Z " fill="#93AA99" transform="translate(949,441)"/>
<path d="M0 0 C0.99 0.495 0.99 0.495 2 1 C1.01 1.495 1.01 1.495 0 2 C0 1.34 0 0.68 0 0 Z " fill="#DDBE36" transform="translate(1044,438)"/>
<path d="M0 0 C0.99 0.495 0.99 0.495 2 1 C1.01 1.495 1.01 1.495 0 2 C0 1.34 0 0.68 0 0 Z " fill="#4897E1" transform="translate(848,438)"/>
<path d="M0 0 C0.66 0.66 1.32 1.32 2 2 C1.34 2 0.68 2 0 2 C0 1.34 0 0.68 0 0 Z " fill="#FDD72F" transform="translate(635,304)"/>
<path d="M0 0 C0.66 0.66 1.32 1.32 2 2 C1.34 2 0.68 2 0 2 C0 1.34 0 0.68 0 0 Z " fill="#F6D130" transform="translate(544,286)"/>
<path d="M0 0 C2 1 2 1 2 1 Z " fill="#4091D9" transform="translate(512,807)"/>
<path d="M0 0 C2 1 2 1 2 1 Z " fill="#438BD3" transform="translate(501,807)"/>
<path d="M0 0 C2 1 2 1 2 1 Z " fill="#428ED8" transform="translate(501,804)"/>
<path d="M0 0 C2 1 2 1 2 1 Z " fill="#458FD9" transform="translate(482,797)"/>
<path d="M0 0 C2 1 2 1 2 1 Z " fill="#4698E3" transform="translate(1033,776)"/>
<path d="M0 0 C2 1 2 1 2 1 Z " fill="#4394E0" transform="translate(1088,738)"/>
<path d="" fill="#458FD5" transform="translate(0,0)"/>
<path d="" fill="#4691D7" transform="translate(0,0)"/>
<path d="" fill="#438DD2" transform="translate(0,0)"/>
<path d="" fill="#4594E1" transform="translate(0,0)"/>
<path d="" fill="#448ED7" transform="translate(0,0)"/>
<path d="" fill="#448FD8" transform="translate(0,0)"/>
<path d="M0 0 C2 1 2 1 2 1 Z " fill="#438FD5" transform="translate(1140,689)"/>
<path d="" fill="#4391DD" transform="translate(0,0)"/>
<path d="" fill="#478ED6" transform="translate(0,0)"/>
<path d="M0 0 C2 1 2 1 2 1 Z " fill="#4594DE" transform="translate(1097,648)"/>
<path d="M0 0 C2 1 2 1 2 1 Z " fill="#4891D9" transform="translate(1090,643)"/>
<path d="" fill="#4290D9" transform="translate(0,0)"/>
<path d="" fill="#458ED8" transform="translate(0,0)"/>
<path d="" fill="#4793DD" transform="translate(0,0)"/>
<path d="M0 0 C2 1 2 1 2 1 Z " fill="#4B94DB" transform="translate(516,577)"/>
<path d="" fill="#4892D7" transform="translate(0,0)"/>
<path d="" fill="#4994DB" transform="translate(0,0)"/>
<path d="" fill="#5599D3" transform="translate(0,0)"/>
<path d="M0 0 C2 1 2 1 2 1 Z " fill="#418FD5" transform="translate(688,535)"/>
<path d="M0 0 C2 1 2 1 2 1 Z " fill="#4690D8" transform="translate(680,533)"/>
<path d="M0 0 C2 1 2 1 2 1 Z " fill="#468FD5" transform="translate(676,532)"/>
<path d="" fill="#5E9AC9" transform="translate(0,0)"/>
<path d="M0 0 C2 1 2 1 2 1 Z " fill="#4896E0" transform="translate(630,531)"/>
<path d="" fill="#629FCB" transform="translate(0,0)"/>
<path d="M0 0 C2 1 2 1 2 1 Z " fill="#71A4BC" transform="translate(569,520)"/>
<path d="M0 0 C2 1 2 1 2 1 Z " fill="#80A3AA" transform="translate(576,516)"/>
<path d="" fill="#5697CD" transform="translate(0,0)"/>
<path d="" fill="#8EAAA0" transform="translate(0,0)"/>
<path d="M0 0 C2 1 2 1 2 1 Z " fill="#8FAB9D" transform="translate(582,512)"/>
<path d="" fill="#609AC7" transform="translate(0,0)"/>
<path d="" fill="#5E9BC9" transform="translate(0,0)"/>
<path d="M0 0 C2 1 2 1 2 1 Z " fill="#639BC5" transform="translate(997,505)"/>
<path d="" fill="#6D9DB9" transform="translate(0,0)"/>
<path d="" fill="#E3CB47" transform="translate(0,0)"/>
<path d="" fill="#8CA99C" transform="translate(0,0)"/>
<path d="M0 0 C2 1 2 1 2 1 Z " fill="#E0C849" transform="translate(997,463)"/>
<path d="M0 0 C2 1 2 1 2 1 Z " fill="#EECF3A" transform="translate(510,463)"/>
<path d="M0 0 C2 1 2 1 2 1 Z " fill="#EBCF3A" transform="translate(464,463)"/>
<path d="M0 0 C2 1 2 1 2 1 Z " fill="#E7CA3A" transform="translate(454,463)"/>
<path d="" fill="#A4B08D" transform="translate(0,0)"/>
<path d="" fill="#D9BC3C" transform="translate(0,0)"/>
<path d="M0 0 C2 1 2 1 2 1 Z " fill="#98AC96" transform="translate(957,449)"/>
<path d="" fill="#F5D335" transform="translate(0,0)"/>
<path d="M0 0 C2 1 2 1 2 1 Z " fill="#4896DD" transform="translate(885,447)"/>
<path d="" fill="#DCBE36" transform="translate(0,0)"/>
<path d="M0 0 C2 1 2 1 2 1 Z " fill="#4896DE" transform="translate(883,446)"/>
<path d="M0 0 C2 1 2 1 2 1 Z " fill="#88A8A4" transform="translate(948,445)"/>
<path d="M0 0 C2 1 2 1 2 1 Z " fill="#4794DF" transform="translate(785,445)"/>
<path d="M0 0 C2 1 2 1 2 1 Z " fill="#4596DF" transform="translate(856,439)"/>
<path d="" fill="#4696E0" transform="translate(0,0)"/>
<path d="M0 0 C2 1 2 1 2 1 Z " fill="#4595DF" transform="translate(809,439)"/>
<path d="M0 0 C2 1 2 1 2 1 Z " fill="#4698E2" transform="translate(851,438)"/>
<path d="M0 0 C2 1 2 1 2 1 Z " fill="#4797E0" transform="translate(818,438)"/>
<path d="M0 0 C2 1 2 1 2 1 Z " fill="#4795DE" transform="translate(833,437)"/>
<path d="M0 0 C2 1 2 1 2 1 Z " fill="#BCBC6B" transform="translate(953,432)"/>
<path d="M0 0 C2 1 2 1 2 1 Z " fill="#77A0B4" transform="translate(930,432)"/>
<path d="M0 0 C2 1 2 1 2 1 Z " fill="#80A2A6" transform="translate(904,418)"/>
<path d="" fill="#F8D431" transform="translate(0,0)"/>
<path d="M0 0 C2 1 2 1 2 1 Z " fill="#F9D833" transform="translate(585,360)"/>
<path d="M0 0 C2 1 2 1 2 1 Z " fill="#F6D332" transform="translate(880,311)"/>
<path d="M0 0 C2 1 2 1 2 1 Z " fill="#F9D530" transform="translate(579,311)"/>
<path d="M0 0 C2 1 2 1 2 1 Z " fill="#F4D22D" transform="translate(574,311)"/>
<path d="M0 0 C2 1 2 1 2 1 Z " fill="#F8D32F" transform="translate(570,310)"/>
<path d="M0 0 C2 1 2 1 2 1 Z " fill="#F8D32C" transform="translate(590,274)"/>
<path d="" fill="#F6D12A" transform="translate(0,0)"/>
<path d="" fill="#5B6468" transform="translate(0,0)"/>
<path d="" fill="#757577" transform="translate(0,0)"/>
<path d="" fill="#636569" transform="translate(0,0)"/>
<path d="" fill="#596168" transform="translate(0,0)"/>
<path d="" fill="#576065" transform="translate(0,0)"/>
<path d="" fill="#5C616A" transform="translate(0,0)"/>
<path d="" fill="#606367" transform="translate(0,0)"/>
<path d="" fill="#596065" transform="translate(0,0)"/>
<path d="" fill="#586167" transform="translate(0,0)"/>
<path d="" fill="#5A6367" transform="translate(0,0)"/>
<path d="" fill="#546065" transform="translate(0,0)"/>
<path d="" fill="#565F64" transform="translate(0,0)"/>
<path d="" fill="#5B6168" transform="translate(0,0)"/>
<path d="" fill="#747375" transform="translate(0,0)"/>
<path d="" fill="#5E6266" transform="translate(0,0)"/>
<path d="" fill="#5B6168" transform="translate(0,0)"/>
<path d="" fill="#585F65" transform="translate(0,0)"/>
<path d="" fill="#5C6265" transform="translate(0,0)"/>
<path d="" fill="#565F65" transform="translate(0,0)"/>
<path d="" fill="#565E65" transform="translate(0,0)"/>
<path d="" fill="#606467" transform="translate(0,0)"/>
<path d="" fill="#596266" transform="translate(0,0)"/>
<path d="" fill="#737477" transform="translate(0,0)"/>
<path d="" fill="#807F7E" transform="translate(0,0)"/>
<path d="" fill="#535E65" transform="translate(0,0)"/>
<path d="" fill="#545C64" transform="translate(0,0)"/>
<path d="" fill="#596067" transform="translate(0,0)"/>
<path d="" fill="#5F6266" transform="translate(0,0)"/>
<path d="" fill="#696B6C" transform="translate(0,0)"/>
<path d="" fill="#545F64" transform="translate(0,0)"/>
<path d="" fill="#565E64" transform="translate(0,0)"/>
<path d="" fill="#525D65" transform="translate(0,0)"/>
<path d="" fill="#737274" transform="translate(0,0)"/>
<path d="" fill="#606266" transform="translate(0,0)"/>
<path d="" fill="#525E65" transform="translate(0,0)"/>
<path d="" fill="#535D63" transform="translate(0,0)"/>
<path d="" fill="#545D63" transform="translate(0,0)"/>
<path d="" fill="#575F65" transform="translate(0,0)"/>
<path d="" fill="#717274" transform="translate(0,0)"/>
<path d="" fill="#556065" transform="translate(0,0)"/>
<path d="" fill="#717174" transform="translate(0,0)"/>
<path d="" fill="#4F5D64" transform="translate(0,0)"/>
<path d="" fill="#525B63" transform="translate(0,0)"/>
<path d="" fill="#4F5B62" transform="translate(0,0)"/>
<path d="" fill="#565D65" transform="translate(0,0)"/>
<path d="" fill="#515E65" transform="translate(0,0)"/>
<path d="" fill="#505A65" transform="translate(0,0)"/>
<path d="" fill="#707172" transform="translate(0,0)"/>
<path d="" fill="#4D5B65" transform="translate(0,0)"/>
<path d="" fill="#4E5A64" transform="translate(0,0)"/>
<path d="" fill="#535B65" transform="translate(0,0)"/>
<path d="" fill="#6E6F71" transform="translate(0,0)"/>
<path d="" fill="#535D65" transform="translate(0,0)"/>
<path d="" fill="#505D65" transform="translate(0,0)"/>
<path d="" fill="#4D5B63" transform="translate(0,0)"/>
<path d="" fill="#535D63" transform="translate(0,0)"/>
<path d="" fill="#505C65" transform="translate(0,0)"/>
<path d="" fill="#6D7071" transform="translate(0,0)"/>
<path d="" fill="#4C5B64" transform="translate(0,0)"/>
<path d="" fill="#515B63" transform="translate(0,0)"/>
<path d="" fill="#4F5B65" transform="translate(0,0)"/>
<path d="" fill="#4C5A65" transform="translate(0,0)"/>
<path d="" fill="#6C6D6F" transform="translate(0,0)"/>
<path d="" fill="#757577" transform="translate(0,0)"/>
<path d="" fill="#4F5B66" transform="translate(0,0)"/>
<path d="" fill="#495964" transform="translate(0,0)"/>
<path d="" fill="#4D5A64" transform="translate(0,0)"/>
<path d="" fill="#626265" transform="translate(0,0)"/>
<path d="" fill="#4C5A64" transform="translate(0,0)"/>
<path d="" fill="#4F5860" transform="translate(0,0)"/>
<path d="" fill="#4C5965" transform="translate(0,0)"/>
<path d="" fill="#4A5964" transform="translate(0,0)"/>
<path d="" fill="#4C5B65" transform="translate(0,0)"/>
<path d="" fill="#6B6C6E" transform="translate(0,0)"/>
<path d="" fill="#475966" transform="translate(0,0)"/>
<path d="" fill="#4B5864" transform="translate(0,0)"/>
<path d="" fill="#4A5A66" transform="translate(0,0)"/>
<path d="" fill="#515A60" transform="translate(0,0)"/>
<path d="" fill="#495B65" transform="translate(0,0)"/>
<path d="" fill="#696B6D" transform="translate(0,0)"/>
<path d="" fill="#445866" transform="translate(0,0)"/>
<path d="" fill="#495864" transform="translate(0,0)"/>
<path d="" fill="#495862" transform="translate(0,0)"/>
<path d="" fill="#465867" transform="translate(0,0)"/>
<path d="" fill="#455865" transform="translate(0,0)"/>
<path d="" fill="#485A68" transform="translate(0,0)"/>
<path d="" fill="#445968" transform="translate(0,0)"/>
<path d="" fill="#475767" transform="translate(0,0)"/>
<path d="" fill="#485965" transform="translate(0,0)"/>
<path d="" fill="#626163" transform="translate(0,0)"/>
<path d="" fill="#475968" transform="translate(0,0)"/>
<path d="" fill="#5A5D5E" transform="translate(0,0)"/>
<path d="" fill="#696A6B" transform="translate(0,0)"/>
<path d="" fill="#415A6B" transform="translate(0,0)"/>
<path d="" fill="#435869" transform="translate(0,0)"/>
<path d="" fill="#455668" transform="translate(0,0)"/>
<path d="" fill="#68686A" transform="translate(0,0)"/>
<path d="" fill="#435A6B" transform="translate(0,0)"/>
<path d="" fill="#465868" transform="translate(0,0)"/>
<path d="" fill="#465A69" transform="translate(0,0)"/>
<path d="" fill="#435B6A" transform="translate(0,0)"/>
<path d="" fill="#43596D" transform="translate(0,0)"/>
<path d="" fill="#435B6B" transform="translate(0,0)"/>
<path d="" fill="#455C6C" transform="translate(0,0)"/>
<path d="" fill="#676869" transform="translate(0,0)"/>
<path d="" fill="#415A6D" transform="translate(0,0)"/>
<path d="" fill="#42586D" transform="translate(0,0)"/>
<path d="" fill="#43586A" transform="translate(0,0)"/>
<path d="" fill="#425567" transform="translate(0,0)"/>
<path d="" fill="#68676B" transform="translate(0,0)"/>
<path d="" fill="#425A6E" transform="translate(0,0)"/>
<path d="" fill="#44576A" transform="translate(0,0)"/>
<path d="" fill="#455A6D" transform="translate(0,0)"/>
<path d="" fill="#727172" transform="translate(0,0)"/>
<path d="" fill="#435968" transform="translate(0,0)"/>
<path d="" fill="#656769" transform="translate(0,0)"/>
<path d="" fill="#425B71" transform="translate(0,0)"/>
<path d="" fill="#43586C" transform="translate(0,0)"/>
<path d="" fill="#405E74" transform="translate(0,0)"/>
<path d="" fill="#415D74" transform="translate(0,0)"/>
<path d="" fill="#405F7A" transform="translate(0,0)"/>
<path d="" fill="#415B72" transform="translate(0,0)"/>
<path d="" fill="#3F627E" transform="translate(0,0)"/>
<path d="" fill="#425C76" transform="translate(0,0)"/>
<path d="" fill="#405E7C" transform="translate(0,0)"/>
<path d="" fill="#435463" transform="translate(0,0)"/>
<path d="" fill="#636366" transform="translate(0,0)"/>
<path d="" fill="#42637F" transform="translate(0,0)"/>
<path d="" fill="#646366" transform="translate(0,0)"/>
<path d="" fill="#416484" transform="translate(0,0)"/>
<path d="" fill="#415F7B" transform="translate(0,0)"/>
<path d="" fill="#636365" transform="translate(0,0)"/>
<path d="" fill="#59585C" transform="translate(0,0)"/>
<path d="" fill="#636365" transform="translate(0,0)"/>
<path d="" fill="#40678B" transform="translate(0,0)"/>
<path d="" fill="#416381" transform="translate(0,0)"/>
<path d="" fill="#42688B" transform="translate(0,0)"/>
<path d="" fill="#436A8E" transform="translate(0,0)"/>
<path d="" fill="#4F5254" transform="translate(0,0)"/>
<path d="" fill="#426B92" transform="translate(0,0)"/>
<path d="" fill="#436587" transform="translate(0,0)"/>
<path d="" fill="#426E9A" transform="translate(0,0)"/>
<path d="" fill="#43688D" transform="translate(0,0)"/>
<path d="" fill="#616164" transform="translate(0,0)"/>
<path d="" fill="#45719E" transform="translate(0,0)"/>
<path d="" fill="#636365" transform="translate(0,0)"/>
<path d="" fill="#4373A1" transform="translate(0,0)"/>
<path d="" fill="#456C93" transform="translate(0,0)"/>
<path d="" fill="#4578AA" transform="translate(0,0)"/>
<path d="" fill="#45709B" transform="translate(0,0)"/>
<path d="" fill="#606163" transform="translate(0,0)"/>
<path d="" fill="#447DB3" transform="translate(0,0)"/>
<path d="" fill="#4775A4" transform="translate(0,0)"/>
<path d="" fill="#5F6062" transform="translate(0,0)"/>
<path d="" fill="#606162" transform="translate(0,0)"/>
<path d="" fill="#4782BD" transform="translate(0,0)"/>
<path d="" fill="#497BAD" transform="translate(0,0)"/>
<path d="" fill="#606161" transform="translate(0,0)"/>
<path d="" fill="#616063" transform="translate(0,0)"/>
<path d="" fill="#4787C8" transform="translate(0,0)"/>
<path d="" fill="#4980B8" transform="translate(0,0)"/>
<path d="" fill="#5E6262" transform="translate(0,0)"/>
<path d="" fill="#606162" transform="translate(0,0)"/>
<path d="" fill="#488DD4" transform="translate(0,0)"/>
<path d="" fill="#5E6063" transform="translate(0,0)"/>
<path d="" fill="#498FD5" transform="translate(0,0)"/>
<path d="" fill="#488DD4" transform="translate(0,0)"/>
<path d="" fill="#478FD6" transform="translate(0,0)"/>
<path d="" fill="#428FDA" transform="translate(0,0)"/>
<path d="" fill="#448FDC" transform="translate(0,0)"/>
<path d="" fill="#498BCF" transform="translate(0,0)"/>
<path d="" fill="#5E6062" transform="translate(0,0)"/>
<path d="" fill="#4590D7" transform="translate(0,0)"/>
<path d="" fill="#415F7E" transform="translate(0,0)"/>
<path d="" fill="#438DD5" transform="translate(0,0)"/>
<path d="" fill="#448FD9" transform="translate(0,0)"/>
<path d="" fill="#428DD7" transform="translate(0,0)"/>
<path d="" fill="#5F6063" transform="translate(0,0)"/>
<path d="" fill="#5F6063" transform="translate(0,0)"/>
<path d="" fill="#418DD7" transform="translate(0,0)"/>
<path d="" fill="#5F6161" transform="translate(0,0)"/>
<path d="" fill="#4291D8" transform="translate(0,0)"/>
<path d="" fill="#4A4F52" transform="translate(0,0)"/>
<path d="" fill="#5E6063" transform="translate(0,0)"/>
<path d="" fill="#418AD1" transform="translate(0,0)"/>
<path d="" fill="#438DD3" transform="translate(0,0)"/>
<path d="" fill="#5E5F62" transform="translate(0,0)"/>
<path d="" fill="#428CD4" transform="translate(0,0)"/>
<path d="" fill="#478DD4" transform="translate(0,0)"/>
<path d="" fill="#438DD4" transform="translate(0,0)"/>
<path d="" fill="#4390DB" transform="translate(0,0)"/>
<path d="" fill="#4492D9" transform="translate(0,0)"/>
<path d="" fill="#5F6163" transform="translate(0,0)"/>
<path d="" fill="#448CD5" transform="translate(0,0)"/>
<path d="" fill="#488FD5" transform="translate(0,0)"/>
<path d="" fill="#478DD6" transform="translate(0,0)"/>
<path d="" fill="#438FD9" transform="translate(0,0)"/>
<path d="" fill="#4495E0" transform="translate(0,0)"/>
<path d="" fill="#4692DD" transform="translate(0,0)"/>
<path d="" fill="#438ED7" transform="translate(0,0)"/>
<path d="" fill="#448DD7" transform="translate(0,0)"/>
<path d="" fill="#438DD6" transform="translate(0,0)"/>
<path d="" fill="#438CD9" transform="translate(0,0)"/>
<path d="" fill="#438CD7" transform="translate(0,0)"/>
<path d="" fill="#438DD8" transform="translate(0,0)"/>
<path d="" fill="#4390DE" transform="translate(0,0)"/>
<path d="" fill="#4693DF" transform="translate(0,0)"/>
<path d="" fill="#428CD7" transform="translate(0,0)"/>
<path d="" fill="#428EDC" transform="translate(0,0)"/>
<path d="" fill="#4693DE" transform="translate(0,0)"/>
<path d="" fill="#4794DE" transform="translate(0,0)"/>
<path d="" fill="#448BD0" transform="translate(0,0)"/>
<path d="" fill="#5E5F63" transform="translate(0,0)"/>
<path d="" fill="#4790D7" transform="translate(0,0)"/>
<path d="" fill="#418ED7" transform="translate(0,0)"/>
<path d="" fill="#448ED4" transform="translate(0,0)"/>
<path d="" fill="#4595E1" transform="translate(0,0)"/>
<path d="" fill="#4494E3" transform="translate(0,0)"/>
<path d="" fill="#5F5F62" transform="translate(0,0)"/>
<path d="" fill="#4286C6" transform="translate(0,0)"/>
<path d="" fill="#4894DD" transform="translate(0,0)"/>
<path d="" fill="#448FD6" transform="translate(0,0)"/>
<path d="" fill="#5E5F61" transform="translate(0,0)"/>
<path d="" fill="#4293E3" transform="translate(0,0)"/>
<path d="" fill="#4294E2" transform="translate(0,0)"/>
<path d="" fill="#4490DB" transform="translate(0,0)"/>
<path d="" fill="#4294E0" transform="translate(0,0)"/>
<path d="" fill="#408FE0" transform="translate(0,0)"/>
<path d="" fill="#438ED6" transform="translate(0,0)"/>
<path d="" fill="#478ED1" transform="translate(0,0)"/>
<path d="" fill="#5E6063" transform="translate(0,0)"/>
<path d="" fill="#44627F" transform="translate(0,0)"/>
<path d="" fill="#4082C0" transform="translate(0,0)"/>
<path d="" fill="#4890D7" transform="translate(0,0)"/>
<path d="" fill="#438CD2" transform="translate(0,0)"/>
<path d="" fill="#5E5E62" transform="translate(0,0)"/>
<path d="" fill="#478CD0" transform="translate(0,0)"/>
<path d="" fill="#407EB8" transform="translate(0,0)"/>
<path d="" fill="#428BD1" transform="translate(0,0)"/>
<path d="" fill="#515559" transform="translate(0,0)"/>
<path d="" fill="#5F6062" transform="translate(0,0)"/>
<path d="" fill="#498DD2" transform="translate(0,0)"/>
<path d="" fill="#5F5F62" transform="translate(0,0)"/>
<path d="" fill="#4390D7" transform="translate(0,0)"/>
<path d="" fill="#468ED6" transform="translate(0,0)"/>
<path d="" fill="#4592E0" transform="translate(0,0)"/>
<path d="" fill="#4496E4" transform="translate(0,0)"/>
<path d="" fill="#438DD3" transform="translate(0,0)"/>
<path d="" fill="#495051" transform="translate(0,0)"/>
<path d="" fill="#5E6062" transform="translate(0,0)"/>
<path d="" fill="#3E7BB3" transform="translate(0,0)"/>
<path d="" fill="#478BCF" transform="translate(0,0)"/>
<path d="" fill="#4194E2" transform="translate(0,0)"/>
<path d="" fill="#4395E1" transform="translate(0,0)"/>
<path d="" fill="#4394E1" transform="translate(0,0)"/>
<path d="" fill="#428CD3" transform="translate(0,0)"/>
<path d="" fill="#4196DF" transform="translate(0,0)"/>
<path d="" fill="#5E6162" transform="translate(0,0)"/>
<path d="" fill="#3E78AD" transform="translate(0,0)"/>
<path d="" fill="#4889CB" transform="translate(0,0)"/>
<path d="" fill="#606063" transform="translate(0,0)"/>
<path d="" fill="#448ED5" transform="translate(0,0)"/>
<path d="" fill="#4792DA" transform="translate(0,0)"/>
<path d="" fill="#417DB5" transform="translate(0,0)"/>
<path d="" fill="#4995E1" transform="translate(0,0)"/>
<path d="" fill="#478DD5" transform="translate(0,0)"/>
<path d="" fill="#5E6062" transform="translate(0,0)"/>
<path d="" fill="#3B73A8" transform="translate(0,0)"/>
<path d="" fill="#5E5F62" transform="translate(0,0)"/>
<path d="" fill="#458CD2" transform="translate(0,0)"/>
<path d="" fill="#438ED8" transform="translate(0,0)"/>
<path d="" fill="#458ED4" transform="translate(0,0)"/>
<path d="" fill="#4695E1" transform="translate(0,0)"/>
<path d="" fill="#448BCF" transform="translate(0,0)"/>
<path d="" fill="#494F52" transform="translate(0,0)"/>
<path d="" fill="#535658" transform="translate(0,0)"/>
<path d="" fill="#5F5F62" transform="translate(0,0)"/>
<path d="" fill="#426686" transform="translate(0,0)"/>
<path d="" fill="#3B71A1" transform="translate(0,0)"/>
<path d="" fill="#468ED6" transform="translate(0,0)"/>
<path d="" fill="#5E5E62" transform="translate(0,0)"/>
<path d="" fill="#478DD4" transform="translate(0,0)"/>
<path d="" fill="#4785C3" transform="translate(0,0)"/>
<path d="" fill="#4694E1" transform="translate(0,0)"/>
<path d="" fill="#438DD3" transform="translate(0,0)"/>
<path d="" fill="#5E6061" transform="translate(0,0)"/>
<path d="" fill="#458BD1" transform="translate(0,0)"/>
<path d="" fill="#396E9D" transform="translate(0,0)"/>
<path d="" fill="#4685C3" transform="translate(0,0)"/>
<path d="" fill="#4495E2" transform="translate(0,0)"/>
<path d="" fill="#4795DC" transform="translate(0,0)"/>
<path d="" fill="#4793DC" transform="translate(0,0)"/>
<path d="" fill="#448ED7" transform="translate(0,0)"/>
<path d="" fill="#4493E0" transform="translate(0,0)"/>
<path d="" fill="#5D5F61" transform="translate(0,0)"/>
<path d="" fill="#396B99" transform="translate(0,0)"/>
<path d="" fill="#325F86" transform="translate(0,0)"/>
<path d="" fill="#4684C3" transform="translate(0,0)"/>
<path d="" fill="#488BD1" transform="translate(0,0)"/>
<path d="" fill="#457FB7" transform="translate(0,0)"/>
<path d="" fill="#447EB6" transform="translate(0,0)"/>
<path d="" fill="#4694DF" transform="translate(0,0)"/>
<path d="" fill="#5E5E61" transform="translate(0,0)"/>
<path d="" fill="#386995" transform="translate(0,0)"/>
<path d="" fill="#4683C0" transform="translate(0,0)"/>
<path d="" fill="#5D5F61" transform="translate(0,0)"/>
<path d="" fill="#4594DF" transform="translate(0,0)"/>
<path d="" fill="#3E74A4" transform="translate(0,0)"/>
<path d="" fill="#4594DF" transform="translate(0,0)"/>
<path d="" fill="#4594DD" transform="translate(0,0)"/>
<path d="" fill="#5E5F61" transform="translate(0,0)"/>
<path d="" fill="#396893" transform="translate(0,0)"/>
<path d="" fill="#4682BF" transform="translate(0,0)"/>
<path d="" fill="#3F73A3" transform="translate(0,0)"/>
<path d="" fill="#438ED4" transform="translate(0,0)"/>
<path d="" fill="#376791" transform="translate(0,0)"/>
<path d="" fill="#3E73A3" transform="translate(0,0)"/>
<path d="" fill="#4691D8" transform="translate(0,0)"/>
<path d="" fill="#458DD2" transform="translate(0,0)"/>
<path d="" fill="#3A668F" transform="translate(0,0)"/>
<path d="" fill="#4790D8" transform="translate(0,0)"/>
<path d="" fill="#4391D6" transform="translate(0,0)"/>
<path d="" fill="#5E5E61" transform="translate(0,0)"/>
<path d="" fill="#39668F" transform="translate(0,0)"/>
<path d="" fill="#4784C3" transform="translate(0,0)"/>
<path d="" fill="#5D5E61" transform="translate(0,0)"/>
<path d="" fill="#4895E1" transform="translate(0,0)"/>
<path d="" fill="#4073A4" transform="translate(0,0)"/>
<path d="" fill="#5D5F60" transform="translate(0,0)"/>
<path d="" fill="#4790D3" transform="translate(0,0)"/>
<path d="" fill="#457FB7" transform="translate(0,0)"/>
<path d="" fill="#468ED7" transform="translate(0,0)"/>
<path d="" fill="#4492E3" transform="translate(0,0)"/>
<path d="" fill="#5D5E60" transform="translate(0,0)"/>
<path d="" fill="#38668E" transform="translate(0,0)"/>
<path d="" fill="#4785C4" transform="translate(0,0)"/>
<path d="" fill="#4393DE" transform="translate(0,0)"/>
<path d="" fill="#5D5E60" transform="translate(0,0)"/>
<path d="" fill="#5D5F60" transform="translate(0,0)"/>
<path d="" fill="#4893DE" transform="translate(0,0)"/>
<path d="" fill="#4491E0" transform="translate(0,0)"/>
<path d="" fill="#4987C7" transform="translate(0,0)"/>
<path d="" fill="#468DD7" transform="translate(0,0)"/>
<path d="" fill="#488FD7" transform="translate(0,0)"/>
<path d="" fill="#4392DC" transform="translate(0,0)"/>
<path d="" fill="#5E5E60" transform="translate(0,0)"/>
<path d="" fill="#3A678F" transform="translate(0,0)"/>
<path d="" fill="#498BCC" transform="translate(0,0)"/>
<path d="" fill="#4293E0" transform="translate(0,0)"/>
<path d="" fill="#315574" transform="translate(0,0)"/>
<path d="" fill="#458ED4" transform="translate(0,0)"/>
<path d="" fill="#435261" transform="translate(0,0)"/>
<path d="" fill="#5E5E61" transform="translate(0,0)"/>
<path d="" fill="#717071" transform="translate(0,0)"/>
<path d="" fill="#3A6991" transform="translate(0,0)"/>
<path d="" fill="#4A8DD1" transform="translate(0,0)"/>
<path d="" fill="#4E4F51" transform="translate(0,0)"/>
<path d="" fill="#4793DE" transform="translate(0,0)"/>
<path d="" fill="#478CCF" transform="translate(0,0)"/>
<path d="" fill="#345475" transform="translate(0,0)"/>
<path d="" fill="#4694DB" transform="translate(0,0)"/>
<path d="" fill="#5E5E60" transform="translate(0,0)"/>
<path d="" fill="#3D6C95" transform="translate(0,0)"/>
<path d="" fill="#4B91D6" transform="translate(0,0)"/>
<path d="" fill="#5D5E61" transform="translate(0,0)"/>
<path d="" fill="#3E6B97" transform="translate(0,0)"/>
<path d="" fill="#5E5F60" transform="translate(0,0)"/>
<path d="" fill="#3D6E98" transform="translate(0,0)"/>
<path d="" fill="#4B93DD" transform="translate(0,0)"/>
<path d="" fill="#4590D9" transform="translate(0,0)"/>
<path d="" fill="#478FD1" transform="translate(0,0)"/>
<path d="" fill="#478ECE" transform="translate(0,0)"/>
<path d="" fill="#4692DB" transform="translate(0,0)"/>
<path d="" fill="#5E5F60" transform="translate(0,0)"/>
<path d="" fill="#4692DD" transform="translate(0,0)"/>
<path d="" fill="#488ED2" transform="translate(0,0)"/>
<path d="" fill="#4E5050" transform="translate(0,0)"/>
<path d="" fill="#5E5E60" transform="translate(0,0)"/>
<path d="" fill="#4591DD" transform="translate(0,0)"/>
<path d="" fill="#4798E2" transform="translate(0,0)"/>
<path d="" fill="#4793DE" transform="translate(0,0)"/>
<path d="" fill="#4786C3" transform="translate(0,0)"/>
<path d="" fill="#4898E3" transform="translate(0,0)"/>
<path d="" fill="#4591DC" transform="translate(0,0)"/>
<path d="" fill="#4796E0" transform="translate(0,0)"/>
<path d="" fill="#4893DD" transform="translate(0,0)"/>
<path d="" fill="#4A8DCF" transform="translate(0,0)"/>
<path d="" fill="#498BCD" transform="translate(0,0)"/>
<path d="" fill="#5D5E60" transform="translate(0,0)"/>
<path d="" fill="#4794DF" transform="translate(0,0)"/>
<path d="" fill="#4073A1" transform="translate(0,0)"/>
<path d="" fill="#5D5E5F" transform="translate(0,0)"/>
<path d="" fill="#498BCC" transform="translate(0,0)"/>
<path d="" fill="#4595E2" transform="translate(0,0)"/>
<path d="" fill="#4895E1" transform="translate(0,0)"/>
<path d="" fill="#5D5E5F" transform="translate(0,0)"/>
<path d="" fill="#4276A4" transform="translate(0,0)"/>
<path d="" fill="#468ED5" transform="translate(0,0)"/>
<path d="" fill="#4995DF" transform="translate(0,0)"/>
<path d="" fill="#4896DE" transform="translate(0,0)"/>
<path d="" fill="#4992D7" transform="translate(0,0)"/>
<path d="" fill="#478FCF" transform="translate(0,0)"/>
<path d="" fill="#4895E1" transform="translate(0,0)"/>
<path d="" fill="#5D5E5F" transform="translate(0,0)"/>
<path d="" fill="#4171A5" transform="translate(0,0)"/>
<path d="" fill="#4B91D4" transform="translate(0,0)"/>
<path d="" fill="#4798E7" transform="translate(0,0)"/>
<path d="" fill="#5E5F60" transform="translate(0,0)"/>
<path d="" fill="#498FD4" transform="translate(0,0)"/>
<path d="" fill="#4D92D6" transform="translate(0,0)"/>
<path d="" fill="#478ED2" transform="translate(0,0)"/>
<path d="" fill="#498DD2" transform="translate(0,0)"/>
<path d="" fill="#4D94D3" transform="translate(0,0)"/>
<path d="" fill="#488DCD" transform="translate(0,0)"/>
<path d="" fill="#4694DD" transform="translate(0,0)"/>
<path d="" fill="#5E5E5E" transform="translate(0,0)"/>
<path d="" fill="#427BAD" transform="translate(0,0)"/>
<path d="" fill="#5295D9" transform="translate(0,0)"/>
<path d="" fill="#5D5E60" transform="translate(0,0)"/>
<path d="" fill="#5D5F5F" transform="translate(0,0)"/>
<path d="" fill="#4A95DD" transform="translate(0,0)"/>
<path d="" fill="#474B4F" transform="translate(0,0)"/>
<path d="" fill="#4792D7" transform="translate(0,0)"/>
<path d="" fill="#4594DD" transform="translate(0,0)"/>
<path d="" fill="#5E5E5F" transform="translate(0,0)"/>
<path d="" fill="#4A90D3" transform="translate(0,0)"/>
<path d="" fill="#447FB1" transform="translate(0,0)"/>
<path d="" fill="#4E96DA" transform="translate(0,0)"/>
<path d="" fill="#5792CD" transform="translate(0,0)"/>
<path d="" fill="#5D5D5F" transform="translate(0,0)"/>
<path d="" fill="#498FD3" transform="translate(0,0)"/>
<path d="" fill="#5E5E5E" transform="translate(0,0)"/>
<path d="" fill="#4A8DCB" transform="translate(0,0)"/>
<path d="" fill="#4691D8" transform="translate(0,0)"/>
<path d="" fill="#4F93D6" transform="translate(0,0)"/>
<path d="" fill="#5E5E5F" transform="translate(0,0)"/>
<path d="" fill="#4680B4" transform="translate(0,0)"/>
<path d="" fill="#5D5D5E" transform="translate(0,0)"/>
<path d="" fill="#4793D7" transform="translate(0,0)"/>
<path d="" fill="#4993D9" transform="translate(0,0)"/>
<path d="" fill="#4792D9" transform="translate(0,0)"/>
<path d="" fill="#4894DC" transform="translate(0,0)"/>
<path d="" fill="#5299D5" transform="translate(0,0)"/>
<path d="" fill="#4893DC" transform="translate(0,0)"/>
<path d="" fill="#4791D6" transform="translate(0,0)"/>
<path d="" fill="#5199D6" transform="translate(0,0)"/>
<path d="" fill="#4193DE" transform="translate(0,0)"/>
<path d="" fill="#5F5E5E" transform="translate(0,0)"/>
<path d="" fill="#4795DC" transform="translate(0,0)"/>
<path d="" fill="#4994DB" transform="translate(0,0)"/>
<path d="" fill="#4997DE" transform="translate(0,0)"/>
<path d="" fill="#4F95D5" transform="translate(0,0)"/>
<path d="" fill="#4796DE" transform="translate(0,0)"/>
<path d="" fill="#4592DA" transform="translate(0,0)"/>
<path d="" fill="#5E5E5F" transform="translate(0,0)"/>
<path d="" fill="#4784BC" transform="translate(0,0)"/>
<path d="" fill="#4894DC" transform="translate(0,0)"/>
<path d="" fill="#7093A9" transform="translate(0,0)"/>
<path d="" fill="#5D5D5F" transform="translate(0,0)"/>
<path d="" fill="#4795DF" transform="translate(0,0)"/>
<path d="" fill="#5397D0" transform="translate(0,0)"/>
<path d="" fill="#5597D1" transform="translate(0,0)"/>
<path d="" fill="#484B4C" transform="translate(0,0)"/>
<path d="" fill="#4496E2" transform="translate(0,0)"/>
<path d="" fill="#4787BF" transform="translate(0,0)"/>
<path d="" fill="#7A959E" transform="translate(0,0)"/>
<path d="" fill="#5E5D5F" transform="translate(0,0)"/>
<path d="" fill="#4992D7" transform="translate(0,0)"/>
<path d="" fill="#4991D6" transform="translate(0,0)"/>
<path d="" fill="#5E5F5D" transform="translate(0,0)"/>
<path d="" fill="#4890D6" transform="translate(0,0)"/>
<path d="" fill="#599BCF" transform="translate(0,0)"/>
<path d="" fill="#4697E4" transform="translate(0,0)"/>
<path d="" fill="#5B99CE" transform="translate(0,0)"/>
<path d="" fill="#4796E1" transform="translate(0,0)"/>
<path d="" fill="#5F5D5E" transform="translate(0,0)"/>
<path d="" fill="#4994DA" transform="translate(0,0)"/>
<path d="" fill="#4A96DE" transform="translate(0,0)"/>
<path d="" fill="#5D9CCA" transform="translate(0,0)"/>
<path d="" fill="#839992" transform="translate(0,0)"/>
<path d="" fill="#4692DA" transform="translate(0,0)"/>
<path d="" fill="#4690D7" transform="translate(0,0)"/>
<path d="" fill="#4693DD" transform="translate(0,0)"/>
<path d="" fill="#5E9ACC" transform="translate(0,0)"/>
<path d="" fill="#4992D8" transform="translate(0,0)"/>
<path d="" fill="#4791DB" transform="translate(0,0)"/>
<path d="" fill="#4995DC" transform="translate(0,0)"/>
<path d="" fill="#5D99CA" transform="translate(0,0)"/>
<path d="" fill="#4A92D9" transform="translate(0,0)"/>
<path d="" fill="#4B96D9" transform="translate(0,0)"/>
<path d="" fill="#609AC8" transform="translate(0,0)"/>
<path d="" fill="#659AC2" transform="translate(0,0)"/>
<path d="" fill="#464747" transform="translate(0,0)"/>
<path d="" fill="#5E5E5E" transform="translate(0,0)"/>
<path d="" fill="#699EC4" transform="translate(0,0)"/>
<path d="" fill="#699DC1" transform="translate(0,0)"/>
<path d="" fill="#8F9D87" transform="translate(0,0)"/>
<path d="" fill="#5D5C5E" transform="translate(0,0)"/>
<path d="" fill="#699CBF" transform="translate(0,0)"/>
<path d="" fill="#6D9DBE" transform="translate(0,0)"/>
<path d="" fill="#526466" transform="translate(0,0)"/>
<path d="" fill="#4C95D9" transform="translate(0,0)"/>
<path d="" fill="#4D8BC9" transform="translate(0,0)"/>
<path d="" fill="#5E5D5E" transform="translate(0,0)"/>
<path d="" fill="#4B8DCA" transform="translate(0,0)"/>
<path d="" fill="#99A280" transform="translate(0,0)"/>
<path d="" fill="#5C5C5D" transform="translate(0,0)"/>
<path d="" fill="#4A93DA" transform="translate(0,0)"/>
<path d="" fill="#8CA9A3" transform="translate(0,0)"/>
<path d="" fill="#54615E" transform="translate(0,0)"/>
<path d="" fill="#769194" transform="translate(0,0)"/>
<path d="" fill="#4987C6" transform="translate(0,0)"/>
<path d="" fill="#92AC9E" transform="translate(0,0)"/>
<path d="" fill="#5A9ACE" transform="translate(0,0)"/>
<path d="" fill="#5E5E5E" transform="translate(0,0)"/>
<path d="" fill="#4B8FD0" transform="translate(0,0)"/>
<path d="" fill="#4B94D6" transform="translate(0,0)"/>
<path d="" fill="#669CBE" transform="translate(0,0)"/>
<path d="" fill="#5F9CC7" transform="translate(0,0)"/>
<path d="" fill="#4590D9" transform="translate(0,0)"/>
<path d="" fill="#5E5E5E" transform="translate(0,0)"/>
<path d="" fill="#699ABD" transform="translate(0,0)"/>
<path d="" fill="#4793DA" transform="translate(0,0)"/>
<path d="" fill="#4A91D2" transform="translate(0,0)"/>
<path d="" fill="#5D5D5C" transform="translate(0,0)"/>
<path d="" fill="#6E9DB7" transform="translate(0,0)"/>
<path d="" fill="#74A0B1" transform="translate(0,0)"/>
<path d="" fill="#729FB4" transform="translate(0,0)"/>
<path d="" fill="#D0C55E" transform="translate(0,0)"/>
<path d="" fill="#6FA0BC" transform="translate(0,0)"/>
<path d="" fill="#4994DA" transform="translate(0,0)"/>
<path d="" fill="#4692D8" transform="translate(0,0)"/>
<path d="" fill="#474744" transform="translate(0,0)"/>
<path d="" fill="#5E5E5D" transform="translate(0,0)"/>
<path d="" fill="#747373" transform="translate(0,0)"/>
<path d="" fill="#4696DC" transform="translate(0,0)"/>
<path d="" fill="#4993DA" transform="translate(0,0)"/>
<path d="" fill="#E1CC48" transform="translate(0,0)"/>
<path d="" fill="#7B7E60" transform="translate(0,0)"/>
<path d="" fill="#4592DC" transform="translate(0,0)"/>
<path d="" fill="#4A94D9" transform="translate(0,0)"/>
<path d="" fill="#4794DA" transform="translate(0,0)"/>
<path d="" fill="#4793D8" transform="translate(0,0)"/>
<path d="" fill="#4993D6" transform="translate(0,0)"/>
<path d="" fill="#E4CD4A" transform="translate(0,0)"/>
<path d="" fill="#5E5D5D" transform="translate(0,0)"/>
<path d="" fill="#737171" transform="translate(0,0)"/>
<path d="" fill="#5C5C5D" transform="translate(0,0)"/>
<path d="" fill="#5E5D5C" transform="translate(0,0)"/>
<path d="" fill="#4B4C47" transform="translate(0,0)"/>
<path d="" fill="#5E5D5D" transform="translate(0,0)"/>
<path d="" fill="#EFD23E" transform="translate(0,0)"/>
<path d="" fill="#4893D7" transform="translate(0,0)"/>
<path d="" fill="#4B93D9" transform="translate(0,0)"/>
<path d="" fill="#EFD23E" transform="translate(0,0)"/>
<path d="" fill="#5D5E5B" transform="translate(0,0)"/>
<path d="" fill="#7BA2B2" transform="translate(0,0)"/>
<path d="" fill="#4995DB" transform="translate(0,0)"/>
<path d="" fill="#4894D8" transform="translate(0,0)"/>
<path d="" fill="#4892D8" transform="translate(0,0)"/>
<path d="" fill="#CEC263" transform="translate(0,0)"/>
<path d="" fill="#90AC9C" transform="translate(0,0)"/>
<path d="" fill="#F5D338" transform="translate(0,0)"/>
<path d="" fill="#4894D9" transform="translate(0,0)"/>
<path d="" fill="#E5CF42" transform="translate(0,0)"/>
<path d="" fill="#E5CF44" transform="translate(0,0)"/>
<path d="" fill="#DFC848" transform="translate(0,0)"/>
<path d="" fill="#EDD43C" transform="translate(0,0)"/>
<path d="" fill="#F2D139" transform="translate(0,0)"/>
<path d="" fill="#E5CA3B" transform="translate(0,0)"/>
<path d="" fill="#D1C458" transform="translate(0,0)"/>
<path d="" fill="#4895D9" transform="translate(0,0)"/>
<path d="" fill="#5F5E5D" transform="translate(0,0)"/>
<path d="" fill="#DCC246" transform="translate(0,0)"/>
<path d="" fill="#4993DA" transform="translate(0,0)"/>
<path d="" fill="#EFD33E" transform="translate(0,0)"/>
<path d="" fill="#8CABA0" transform="translate(0,0)"/>
<path d="" fill="#4D95D9" transform="translate(0,0)"/>
<path d="" fill="#CAC062" transform="translate(0,0)"/>
<path d="" fill="#BCBB76" transform="translate(0,0)"/>
<path d="" fill="#4793DC" transform="translate(0,0)"/>
<path d="" fill="#C8BF69" transform="translate(0,0)"/>
<path d="" fill="#94AC99" transform="translate(0,0)"/>
<path d="" fill="#D5BA3F" transform="translate(0,0)"/>
<path d="" fill="#C9C063" transform="translate(0,0)"/>
<path d="" fill="#4A95E0" transform="translate(0,0)"/>
<path d="" fill="#DBBE3D" transform="translate(0,0)"/>
<path d="" fill="#CABF5F" transform="translate(0,0)"/>
<path d="" fill="#4894DC" transform="translate(0,0)"/>
<path d="" fill="#4895DF" transform="translate(0,0)"/>
<path d="" fill="#C8BE61" transform="translate(0,0)"/>
<path d="" fill="#4C97DB" transform="translate(0,0)"/>
<path d="" fill="#D7BC3B" transform="translate(0,0)"/>
<path d="" fill="#4C94DA" transform="translate(0,0)"/>
<path d="" fill="#747370" transform="translate(0,0)"/>
<path d="" fill="#8AA99E" transform="translate(0,0)"/>
<path d="" fill="#4796E0" transform="translate(0,0)"/>
<path d="" fill="#CCC063" transform="translate(0,0)"/>
<path d="" fill="#4593DD" transform="translate(0,0)"/>
<path d="" fill="#4695E0" transform="translate(0,0)"/>
<path d="" fill="#DDC037" transform="translate(0,0)"/>
<path d="" fill="#8CA99F" transform="translate(0,0)"/>
<path d="" fill="#85A7A8" transform="translate(0,0)"/>
<path d="" fill="#F9D634" transform="translate(0,0)"/>
<path d="" fill="#83A5A6" transform="translate(0,0)"/>
<path d="" fill="#DCBE36" transform="translate(0,0)"/>
<path d="" fill="#BBBF71" transform="translate(0,0)"/>
<path d="" fill="#4898E3" transform="translate(0,0)"/>
<path d="" fill="#414134" transform="translate(0,0)"/>
<path d="" fill="#A1AF87" transform="translate(0,0)"/>
<path d="" fill="#4797DF" transform="translate(0,0)"/>
<path d="" fill="#DABE36" transform="translate(0,0)"/>
<path d="" fill="#77A2B2" transform="translate(0,0)"/>
<path d="" fill="#78A2AE" transform="translate(0,0)"/>
<path d="" fill="#DDBF33" transform="translate(0,0)"/>
<path d="" fill="#7EA1AA" transform="translate(0,0)"/>
<path d="" fill="#5C5C5B" transform="translate(0,0)"/>
<path d="" fill="#E1C234" transform="translate(0,0)"/>
<path d="" fill="#7BA1AC" transform="translate(0,0)"/>
<path d="" fill="#8D7D34" transform="translate(0,0)"/>
<path d="" fill="#E2C533" transform="translate(0,0)"/>
<path d="" fill="#85A3A6" transform="translate(0,0)"/>
<path d="" fill="#E0C12E" transform="translate(0,0)"/>
<path d="" fill="#DEBE30" transform="translate(0,0)"/>
<path d="" fill="#E7C630" transform="translate(0,0)"/>
<path d="" fill="#78A2AC" transform="translate(0,0)"/>
<path d="" fill="#F3D032" transform="translate(0,0)"/>
<path d="" fill="#F1D133" transform="translate(0,0)"/>
<path d="" fill="#8AA59B" transform="translate(0,0)"/>
<path d="" fill="#454440" transform="translate(0,0)"/>
<path d="" fill="#5B5B5A" transform="translate(0,0)"/>
<path d="" fill="#B9B668" transform="translate(0,0)"/>
<path d="" fill="#7DA2A9" transform="translate(0,0)"/>
<path d="" fill="#C8AD33" transform="translate(0,0)"/>
<path d="" fill="#7EA3A9" transform="translate(0,0)"/>
<path d="" fill="#444340" transform="translate(0,0)"/>
<path d="" fill="#5C5C5B" transform="translate(0,0)"/>
<path d="" fill="#47442E" transform="translate(0,0)"/>
<path d="" fill="#545554" transform="translate(0,0)"/>
<path d="" fill="#5C5C5B" transform="translate(0,0)"/>
<path d="" fill="#BFB357" transform="translate(0,0)"/>
<path d="" fill="#81702C" transform="translate(0,0)"/>
<path d="" fill="#F9D631" transform="translate(0,0)"/>
<path d="" fill="#D6B932" transform="translate(0,0)"/>
<path d="" fill="#5A5A5B" transform="translate(0,0)"/>
<path d="" fill="#5C5B5C" transform="translate(0,0)"/>
<path d="" fill="#E2CD46" transform="translate(0,0)"/>
<path d="" fill="#E5CB45" transform="translate(0,0)"/>
<path d="" fill="#5B5B5A" transform="translate(0,0)"/>
<path d="" fill="#766727" transform="translate(0,0)"/>
<path d="" fill="#9B872C" transform="translate(0,0)"/>
<path d="" fill="#5B5A5A" transform="translate(0,0)"/>
<path d="" fill="#C0AF44" transform="translate(0,0)"/>
<path d="" fill="#CAAC30" transform="translate(0,0)"/>
<path d="" fill="#F8D531" transform="translate(0,0)"/>
<path d="" fill="#464542" transform="translate(0,0)"/>
<path d="" fill="#FBD532" transform="translate(0,0)"/>
<path d="" fill="#413D28" transform="translate(0,0)"/>
<path d="" fill="#BFAC3F" transform="translate(0,0)"/>
<path d="" fill="#C5A82E" transform="translate(0,0)"/>
<path d="" fill="#5B5B5A" transform="translate(0,0)"/>
<path d="" fill="#C3A62E" transform="translate(0,0)"/>
<path d="" fill="#695C22" transform="translate(0,0)"/>
<path d="" fill="#5B5A5A" transform="translate(0,0)"/>
<path d="" fill="#FAD632" transform="translate(0,0)"/>
<path d="" fill="#A5902B" transform="translate(0,0)"/>
<path d="" fill="#5A5A59" transform="translate(0,0)"/>
<path d="" fill="#5B595A" transform="translate(0,0)"/>
<path d="" fill="#C1AA35" transform="translate(0,0)"/>
<path d="" fill="#BFA22B" transform="translate(0,0)"/>
<path d="" fill="#FAD631" transform="translate(0,0)"/>
<path d="" fill="#5B5A5A" transform="translate(0,0)"/>
<path d="" fill="#BFA12A" transform="translate(0,0)"/>
<path d="" fill="#5B595A" transform="translate(0,0)"/>
<path d="" fill="#FADC33" transform="translate(0,0)"/>
<path d="" fill="#FFD92F" transform="translate(0,0)"/>
<path d="" fill="#F9D52F" transform="translate(0,0)"/>
<path d="" fill="#5B595A" transform="translate(0,0)"/>
<path d="" fill="#FBD934" transform="translate(0,0)"/>
<path d="" fill="#FBDB34" transform="translate(0,0)"/>
<path d="" fill="#FDD733" transform="translate(0,0)"/>
<path d="" fill="#7A6720" transform="translate(0,0)"/>
<path d="" fill="#9C8624" transform="translate(0,0)"/>
<path d="" fill="#FFD92E" transform="translate(0,0)"/>
<path d="" fill="#FAD531" transform="translate(0,0)"/>
<path d="" fill="#3C3625" transform="translate(0,0)"/>
<path d="" fill="#F9D42F" transform="translate(0,0)"/>
<path d="" fill="#FAD42D" transform="translate(0,0)"/>
<path d="" fill="#FAD630" transform="translate(0,0)"/>
<path d="" fill="#5B5A5A" transform="translate(0,0)"/>
<path d="" fill="#C7AD2C" transform="translate(0,0)"/>
<path d="" fill="#F7D130" transform="translate(0,0)"/>
<path d="" fill="#5A595A" transform="translate(0,0)"/>
<path d="" fill="#F5D22C" transform="translate(0,0)"/>
<path d="" fill="#FBD732" transform="translate(0,0)"/>
<path d="" fill="#F5D22E" transform="translate(0,0)"/>
<path d="" fill="#5A5959" transform="translate(0,0)"/>
<path d="" fill="#FFD52F" transform="translate(0,0)"/>
<path d="" fill="#F6D633" transform="translate(0,0)"/>
<path d="" fill="#FBDA30" transform="translate(0,0)"/>
<path d="" fill="#F5D02D" transform="translate(0,0)"/>
<path d="" fill="#F6D22D" transform="translate(0,0)"/>
<path d="" fill="#5C5A5A" transform="translate(0,0)"/>
<path d="" fill="#FAD52E" transform="translate(0,0)"/>
<path d="" fill="#FAD72F" transform="translate(0,0)"/>
<path d="" fill="#5B5A5A" transform="translate(0,0)"/>
<path d="" fill="#FEDA30" transform="translate(0,0)"/>
<path d="" fill="#413A1C" transform="translate(0,0)"/>
<path d="" fill="#FBD833" transform="translate(0,0)"/>
<path d="" fill="#D3B52B" transform="translate(0,0)"/>
<path d="" fill="#F9D42C" transform="translate(0,0)"/>
<path d="" fill="#C9AB2B" transform="translate(0,0)"/>
<path d="" fill="#F7D52B" transform="translate(0,0)"/>
<path d="" fill="#F8D42B" transform="translate(0,0)"/>
<path d="" fill="#F4D22D" transform="translate(0,0)"/>
<path d="" fill="#F8D62D" transform="translate(0,0)"/>
<path d="" fill="#5B5A5A" transform="translate(0,0)"/>
<path d="" fill="#5B595B" transform="translate(0,0)"/>
<path d="" fill="#6C5C1D" transform="translate(0,0)"/>
<path d="" fill="#5B5A5A" transform="translate(0,0)"/>
<path d="" fill="#E8C52B" transform="translate(0,0)"/>
<path d="" fill="#F8D32F" transform="translate(0,0)"/>
<path d="" fill="#5C5B5A" transform="translate(0,0)"/>
<path d="" fill="#5C5B5B" transform="translate(0,0)"/>
<path d="" fill="#ECC62A" transform="translate(0,0)"/>
<path d="" fill="#5B5A5A" transform="translate(0,0)"/>
<path d="" fill="#DFBF2D" transform="translate(0,0)"/>
<path d="" fill="#E5C42E" transform="translate(0,0)"/>
<path d="" fill="#64551C" transform="translate(0,0)"/>
<path d="" fill="#5B5A5B" transform="translate(0,0)"/>
<path d="" fill="#F7D12B" transform="translate(0,0)"/>
<path d="" fill="#B29925" transform="translate(0,0)"/>
<path d="" fill="#A99026" transform="translate(0,0)"/>
<path d="" fill="#5C5B5B" transform="translate(0,0)"/>
<path d="" fill="#F7D12D" transform="translate(0,0)"/>
<path d="" fill="#F7D12B" transform="translate(0,0)"/>
<path d="" fill="#5D5B5C" transform="translate(0,0)"/>
<path d="" fill="#37362F" transform="translate(0,0)"/>
<path d="" fill="#9F8724" transform="translate(0,0)"/>
<path d="" fill="#5B5A5C" transform="translate(0,0)"/>
<path d="" fill="#48401F" transform="translate(0,0)"/>
<path d="" fill="#F5D129" transform="translate(0,0)"/>
<path d="" fill="#5D5D5D" transform="translate(0,0)"/>
<path d="" fill="#F3CF2B" transform="translate(0,0)"/>
<path d="" fill="#5D5D5D" transform="translate(0,0)"/>
<path d="" fill="#917C20" transform="translate(0,0)"/>
<path d="" fill="#373324" transform="translate(0,0)"/>
<path d="" fill="#F3CE2A" transform="translate(0,0)"/>
<path d="" fill="#87741E" transform="translate(0,0)"/>
<path d="" fill="#F2CB2B" transform="translate(0,0)"/>
<path d="" fill="#F3CB2A" transform="translate(0,0)"/>
<path d="" fill="#5F5E5E" transform="translate(0,0)"/>
<path d="" fill="#806D1D" transform="translate(0,0)"/>
<path d="" fill="#7C681F" transform="translate(0,0)"/>
<path d="" fill="#5E5E5F" transform="translate(0,0)"/>
<path d="" fill="#605F60" transform="translate(0,0)"/>
<path d="" fill="#76671B" transform="translate(0,0)"/>
<path d="" fill="#5F5E5F" transform="translate(0,0)"/>
<path d="" fill="#616060" transform="translate(0,0)"/>
<path d="" fill="#6D5C1D" transform="translate(0,0)"/>
<path d="" fill="#DEBD28" transform="translate(0,0)"/>
<path d="" fill="#545254" transform="translate(0,0)"/>
<path d="" fill="#E4BF27" transform="translate(0,0)"/>
<path d="" fill="#616061" transform="translate(0,0)"/>
<path d="" fill="#685A1A" transform="translate(0,0)"/>
<path d="" fill="#66571C" transform="translate(0,0)"/>
<path d="" fill="#37342A" transform="translate(0,0)"/>
<path d="" fill="#67561A" transform="translate(0,0)"/>
<path d="" fill="#DFBE28" transform="translate(0,0)"/>
<path d="" fill="#626063" transform="translate(0,0)"/>
<path d="" fill="#535150" transform="translate(0,0)"/>
<path d="" fill="#636163" transform="translate(0,0)"/>
<path d="" fill="#5B4F19" transform="translate(0,0)"/>
<path d="" fill="#5A4D1B" transform="translate(0,0)"/>
<path d="" fill="#38362C" transform="translate(0,0)"/>
<path d="" fill="#5B4D19" transform="translate(0,0)"/>
<path d="" fill="#656364" transform="translate(0,0)"/>
<path d="" fill="#554B18" transform="translate(0,0)"/>
<path d="" fill="#666364" transform="translate(0,0)"/>
<path d="" fill="#504718" transform="translate(0,0)"/>
<path d="" fill="#51431C" transform="translate(0,0)"/>
<path d="" fill="#443D1B" transform="translate(0,0)"/>
<path d="" fill="#5F5C5C" transform="translate(0,0)"/>
<path d="" fill="#4C4419" transform="translate(0,0)"/>
<path d="" fill="#423B1C" transform="translate(0,0)"/>
<path d="" fill="#48401B" transform="translate(0,0)"/>
<path d="" fill="#3D3821" transform="translate(0,0)"/>
<path d="" fill="#403A1C" transform="translate(0,0)"/>
<path d="" fill="#686768" transform="translate(0,0)"/>
<path d="" fill="#463E19" transform="translate(0,0)"/>
<path d="" fill="#3D381D" transform="translate(0,0)"/>
<path d="" fill="#3B3B33" transform="translate(0,0)"/>
<path d="" fill="#3C3725" transform="translate(0,0)"/>
<path d="" fill="#69686A" transform="translate(0,0)"/>
<path d="" fill="#433D1A" transform="translate(0,0)"/>
<path d="" fill="#423A21" transform="translate(0,0)"/>
<path d="" fill="#433B1B" transform="translate(0,0)"/>
<path d="" fill="#3A3826" transform="translate(0,0)"/>
<path d="" fill="#6A696B" transform="translate(0,0)"/>
<path d="" fill="#484745" transform="translate(0,0)"/>
<path d="" fill="#403A1B" transform="translate(0,0)"/>
<path d="" fill="#403921" transform="translate(0,0)"/>
<path d="" fill="#4C4217" transform="translate(0,0)"/>
<path d="" fill="#6D6C6C" transform="translate(0,0)"/>
<path d="" fill="#3E381D" transform="translate(0,0)"/>
<path d="" fill="#3E3822" transform="translate(0,0)"/>
<path d="" fill="#3B3729" transform="translate(0,0)"/>
<path d="" fill="#3A3621" transform="translate(0,0)"/>
<path d="" fill="#413F3A" transform="translate(0,0)"/>
<path d="" fill="#3F381D" transform="translate(0,0)"/>
<path d="" fill="#484744" transform="translate(0,0)"/>
<path d="" fill="#3D371D" transform="translate(0,0)"/>
<path d="" fill="#3D3723" transform="translate(0,0)"/>
<path d="" fill="#3D3723" transform="translate(0,0)"/>
<path d="" fill="#393521" transform="translate(0,0)"/>
<path d="" fill="#3B392B" transform="translate(0,0)"/>
<path d="" fill="#6E6D6E" transform="translate(0,0)"/>
<path d="" fill="#3C381E" transform="translate(0,0)"/>
<path d="" fill="#3C3626" transform="translate(0,0)"/>
<path d="" fill="#433E1A" transform="translate(0,0)"/>
<path d="" fill="#393624" transform="translate(0,0)"/>
<path d="" fill="#6F6F70" transform="translate(0,0)"/>
<path d="" fill="#3B3620" transform="translate(0,0)"/>
<path d="" fill="#3C3727" transform="translate(0,0)"/>
<path d="" fill="#3E3B36" transform="translate(0,0)"/>
<path d="" fill="#3C382F" transform="translate(0,0)"/>
<path d="" fill="#3A3626" transform="translate(0,0)"/>
<path d="" fill="#4B4B49" transform="translate(0,0)"/>
<path d="" fill="#717071" transform="translate(0,0)"/>
<path d="" fill="#3B392F" transform="translate(0,0)"/>
<path d="" fill="#3B3622" transform="translate(0,0)"/>
<path d="" fill="#3D3829" transform="translate(0,0)"/>
<path d="" fill="#717071" transform="translate(0,0)"/>
<path d="" fill="#49421E" transform="translate(0,0)"/>
<path d="" fill="#3C3728" transform="translate(0,0)"/>
<path d="" fill="#3A3829" transform="translate(0,0)"/>
<path d="" fill="#454140" transform="translate(0,0)"/>
<path d="" fill="#3A3724" transform="translate(0,0)"/>
<path d="" fill="#3C3729" transform="translate(0,0)"/>
<path d="" fill="#727173" transform="translate(0,0)"/>
<path d="" fill="#413E39" transform="translate(0,0)"/>
<path d="" fill="#3F3D34" transform="translate(0,0)"/>
<path d="" fill="#747374" transform="translate(0,0)"/>
<path d="" fill="#3A3723" transform="translate(0,0)"/>
<path d="" fill="#3C392D" transform="translate(0,0)"/>
<path d="" fill="#737275" transform="translate(0,0)"/>
<path d="" fill="#42403D" transform="translate(0,0)"/>
<path d="" fill="#494946" transform="translate(0,0)"/>
<path d="" fill="#3F3D35" transform="translate(0,0)"/>
<path d="" fill="#3F3F35" transform="translate(0,0)"/>
<path d="" fill="#3A3727" transform="translate(0,0)"/>
<path d="" fill="#3D392F" transform="translate(0,0)"/>
<path d="" fill="#3C392E" transform="translate(0,0)"/>
<path d="" fill="#444025" transform="translate(0,0)"/>
<path d="" fill="#414037" transform="translate(0,0)"/>
<path d="" fill="#787677" transform="translate(0,0)"/>
<path d="" fill="#3A3828" transform="translate(0,0)"/>
<path d="" fill="#3D3A32" transform="translate(0,0)"/>
<path d="" fill="#464340" transform="translate(0,0)"/>
<path d="" fill="#3B3A2A" transform="translate(0,0)"/>
<path d="" fill="#3E3B31" transform="translate(0,0)"/>
<path d="" fill="#78777A" transform="translate(0,0)"/>
<path d="" fill="#3D3C31" transform="translate(0,0)"/>
<path d="" fill="#3F392B" transform="translate(0,0)"/>
<path d="" fill="#3D3B32" transform="translate(0,0)"/>
</svg>
